<svg xmlns="http://www.w3.org/2000/svg" xmlns:xlink="http://www.w3.org/1999/xlink" viewBox="0 0 4988.03 3313.44"><defs><style>.cls-1{fill:#282828;}.cls-2,.cls-27,.cls-34,.cls-35,.cls-36,.cls-38,.cls-39{fill:none;}.cls-3{clip-path:url(#clip-path);}.cls-4{clip-path:url(#clip-path-2);}.cls-5,.cls-6{fill:#f7f5f5;}.cls-6{font-size:398.38px;font-family:FredokaOne-Regular, Fredoka One;}.cls-7{opacity:0.2;}.cls-8{clip-path:url(#clip-path-3);}.cls-9{fill:#272525;}.cls-10{clip-path:url(#clip-path-4);}.cls-11{clip-path:url(#clip-path-5);}.cls-12,.cls-13,.cls-22,.cls-33{fill:#c9c9c9;}.cls-13{font-size:39.22px;font-family:FiraSansCondensed-Regular, Fira Sans Condensed;}.cls-14{letter-spacing:0em;}.cls-15{letter-spacing:0em;}.cls-16{letter-spacing:0em;}.cls-17{letter-spacing:-0.02em;}.cls-18{letter-spacing:-0.01em;}.cls-19{letter-spacing:-0.01em;}.cls-20{letter-spacing:0em;}.cls-21{letter-spacing:0em;}.cls-22{font-size:26.33px;font-family:FiraSansCondensed-Book, Fira Sans Condensed;letter-spacing:0.1em;}.cls-23{letter-spacing:0.1em;}.cls-24{letter-spacing:0.09em;}.cls-25{letter-spacing:0.1em;}.cls-26{letter-spacing:0.09em;}.cls-27,.cls-35,.cls-36{stroke:#c9c9c9;}.cls-27,.cls-31,.cls-34,.cls-35,.cls-36,.cls-38,.cls-39{stroke-miterlimit:10;}.cls-27{stroke-width:0.82px;}.cls-28{fill:#f9f9f9;}.cls-29{clip-path:url(#clip-path-6);}.cls-30,.cls-31{fill:#1c1c1c;}.cls-31{stroke:#1c1c1c;stroke-width:0.5px;}.cls-32{fill:#fffdfd;}.cls-33{opacity:0.29;}.cls-34{stroke:#f4f4f2;}.cls-34,.cls-36{stroke-linecap:round;}.cls-35{stroke-width:8px;}.cls-36{stroke-width:3px;}.cls-37{fill:#6b6b6b;}.cls-38{stroke:#9b9b9b;}.cls-38,.cls-39{stroke-width:6px;}.cls-39{stroke:#b2b2b1;}.cls-40{clip-path:url(#clip-path-7);}</style><clipPath id="clip-path" transform="translate(357.5 226.56)"><rect class="cls-1" width="4256" height="2832"/></clipPath><clipPath id="clip-path-2" transform="translate(357.5 226.56)"><rect class="cls-2" x="1275.8" y="563.8" width="1704.4" height="1704.4"/></clipPath><clipPath id="clip-path-3" transform="translate(357.5 226.56)"><path class="cls-2" d="M2435.53,1164.84q12.34,0,19.91,2.59t10.76,8.36a30.2,30.2,0,0,1,3.79,10.56,123.61,123.61,0,0,1,.59,13.94V1421.8a91.47,91.47,0,0,1-.79,13.94,36.76,36.76,0,0,1-3.79,10.56q-3,5.78-10.75,8.16t-20.52,2.39a61.75,61.75,0,0,1-17.13-2,31.25,31.25,0,0,1-10.36-4.78,16.67,16.67,0,0,1-5.38-8.16,36,36,0,0,1-2-9.17q-.2-3.78-.2-11.35v-48.6h-108a61.34,61.34,0,0,1-17.13-2,31.05,31.05,0,0,1-10.36-4.78,16.67,16.67,0,0,1-5.38-8.16,36,36,0,0,1-2-9.17q-.2-3.78-.2-11.35a57.55,57.55,0,0,1,1.2-12.75l33.06-133.46c1.6-6.1,3-10.76,4.19-13.94s3.58-6.24,7.17-9.17,8.29-4.38,14.14-4.38a67.68,67.68,0,0,1,17.93,2.79q27.87,7.58,27.89,25.5,0,6.38-2.79,16.73l-.4.4v.8l-24.3,97.2h64.93V1198.3a110,110,0,0,1,.6-13.54,28.56,28.56,0,0,1,3.78-10q3.19-5.58,11-7.77T2435.53,1164.84Z"/></clipPath><clipPath id="clip-path-4" transform="translate(357.5 226.56)"><path class="cls-2" d="M1954.06,1164.84q12.35,0,19.92,2.59t10.76,8.36a30,30,0,0,1,3.78,10.56,120.78,120.78,0,0,1,.6,13.94V1421.8a91.21,91.21,0,0,1-.8,13.94,36.41,36.41,0,0,1-3.78,10.56q-3,5.78-10.76,8.16c-5.17,1.6-12,2.39-20.51,2.39a61.75,61.75,0,0,1-17.13-2,31.25,31.25,0,0,1-10.36-4.78,16.67,16.67,0,0,1-5.38-8.16,35.55,35.55,0,0,1-2-9.17c-.14-2.52-.2-6.3-.2-11.35v-48.6h-108a61.34,61.34,0,0,1-17.13-2,31.05,31.05,0,0,1-10.36-4.78,16.67,16.67,0,0,1-5.38-8.16,36,36,0,0,1-2-9.17c-.14-2.52-.2-6.3-.2-11.35a58.22,58.22,0,0,1,1.19-12.75l33.07-133.46c1.59-6.1,3-10.76,4.18-13.94s3.59-6.24,7.18-9.17,8.29-4.38,14.14-4.38a67.55,67.55,0,0,1,17.92,2.79q27.89,7.58,27.89,25.5,0,6.38-2.79,16.73l-.4.4v.8l-24.3,97.2h64.94V1198.3a110,110,0,0,1,.6-13.54,28.17,28.17,0,0,1,3.78-10q3.18-5.58,11-7.77T1954.06,1164.84Z"/></clipPath><clipPath id="clip-path-5" transform="translate(357.5 226.56)"><path class="cls-2" d="M2126.57,1160.85q27.07,0,47.6,10.76t32.27,26.69a134.18,134.18,0,0,1,18.92,37.45,215.6,215.6,0,0,1,9.56,39.64,277.52,277.52,0,0,1,2.39,36.45,295.91,295.91,0,0,1-2.39,38.05,197.65,197.65,0,0,1-9.76,39.64,139.38,139.38,0,0,1-18.92,36.85q-11.56,15.73-32.07,26.09t-46.81,10.36q-27.9,0-48.8-10.56t-32.67-26.09q-11.76-15.54-19.12-37a194.32,194.32,0,0,1-9.56-39.84,316.58,316.58,0,0,1-2.19-37.84,283.82,283.82,0,0,1,2.19-35.46q2.18-17.54,9.36-39.24a140.07,140.07,0,0,1,18.72-37.85q11.55-16.14,32.47-27.09T2126.57,1160.85Zm-.8,231.07q41,0,41-78.08v-2.39q0-80.09-40.63-80.08t-40.64,80.47Q2085.53,1391.93,2125.77,1391.92Z"/></clipPath><clipPath id="clip-path-6" transform="translate(357.5 226.56)"><path class="cls-2" d="M1669.57,743.06a67,67,0,1,0-132.68-13.64s-2.13,79.26,5.95,138.39a115.07,115.07,0,0,0,18.79,49.78c1.81,2.62,3.88,4.8,7.35,4.8,8.66,0,8.66-13.63,17.32-13.63s8.66,13.63,17.32,13.63,8.66-13.63,17.33-13.63,8.66,13.63,17.31,13.63,8.67-13.63,17.34-13.63,8.67,13.63,17.34,13.63c3.5,0,5.59-2.22,7.41-4.88a31.12,31.12,0,0,0,3.9-26.51C1676.25,864.32,1663.78,809.83,1669.57,743.06Z"/></clipPath><clipPath id="clip-path-7" transform="translate(357.5 226.56)"><path class="cls-2" d="M2545.3,1883.36c-1.3-12.51-3.51-25.12-8.68-36.63-.42-1.57-.83-3.14-1.32-4.68-4.3-13.7-13-26.07-27.89-32-12.76-5.14-27.68-5.2-40.95-1.64-32.62,8.74-49.36,38-54.35,66.36-6.81,38.85,4.78,78.12.57,117.17-1.17,10.87-5.23,22.08-5.06,33,.1,6.27,2.2,12.65,8.59,15.9,20.07,10.19,14.69-12.57,23.91-14.15,4.09-.7,4.35,5.09,4.76,8.81.5,4.48,4.53,8.45,9.44,9.31s10.31-1.46,12.64-5.44c1.4-2.39,1.78-5.26,3.58-7.43s6.11-3,7.55-.63c-2.89,5.07-.26,12.06,5.46,14.5s13.42-.13,16-5.33c1-2.11,1.3-4.5,2.63-6.47s4.43-3.33,6.45-1.92c-1.13,5.63-1.54,12.78,4,15.66,5.82,3,13.08-1.61,16.5-6.83,14.58-22.21,15.08-56,17.07-81A418,418,0,0,0,2545.3,1883.36Z"/></clipPath></defs><g id="BACKGROUND"><rect class="cls-1" x="357.5" y="226.56" width="4256" height="2832"/><g class="cls-3"><rect class="cls-1" width="4988.03" height="3313.44"/></g></g><g id="OBJECTS"><g class="cls-4"><path class="cls-5" d="M2301,1181c-8.58,3.48-21.8,7.23-27.44,14.92-4.59,6.26-1.17,10.13,3,14.3-.67,2.26-1.26,4.57-1.76,6.9a12.18,12.18,0,0,0-1.38.58c-3.2,1.88-5.69,4.06-6.8,7.7a11.67,11.67,0,0,0,.81,9.07c.45.91,4.37,5.11,6.11,7.19a45.54,45.54,0,0,0,.84,4.51c1.42,5.8,10.88,6.15,12.09,0a10.57,10.57,0,0,0-.67-7.06,41.22,41.22,0,0,1,1-14.26c2.52-1.57,4.88-3.25,6.19-6.14a10.66,10.66,0,0,0-1.26-10.93,56.14,56.14,0,0,0,2.24-12.91c0-.07,0-.13,0-.2,3.37-2.17,6.91-4.18,10.21-6.22C2307.88,1186.1,2305.45,1179.16,2301,1181Z" transform="translate(357.5 226.56)"/><path class="cls-5" d="M2479.83,1214.17c-3.5-7.79-6-3-6.78-16.14-.47-7.78,2.22-12.22-4.71-18.08-4.2-3.56-12-7.7-17.59-7.52-1.56,0-3.62,1.19-3.85,2.93-.08.54-.15,1.08-.22,1.62-.42,3.07.36,5.29,2.89,7.11,3.92,2.82,6.66,3,9.36,7.23,2.88,4.46,1.53,6,1.6,10.81a15.6,15.6,0,0,0,3.23,9.71,6.29,6.29,0,0,0-1.17,1.24c-1.33,1.91-.16,4.23,1.43,5.44a8.45,8.45,0,0,0,3.73,1.07l.37.05c.9,3-1,3.82-5.61,7.75a23.94,23.94,0,0,0-4.52,4.36c-3.54,5.17-3.34,11.24-2.11,17.07.87,4.12,6.7,2.25,6.16-1.7-1.73-12.72,16.21-13.75,18.64-25A13.46,13.46,0,0,0,2479.83,1214.17Z" transform="translate(357.5 226.56)"/><path class="cls-5" d="M2411.69,1279.05c-3.27-2.91-2.93-7.77-5.61-11.1a42.08,42.08,0,0,0-6-3.77c1.69-1,4.8-5.18,5-6.3a9,9,0,0,0-2.45-7.85l-.08-.07c.17,0,.35-.06.51-.12a5.49,5.49,0,0,0,3.89-6,5,5,0,0,0-1.82-3.32c3.43-2.86,5.26-6.78,3.5-11.61-1.1-3-6.08-3.72-6.85,0-1.42,6.85-12.07,6.07-16.46,9.58a12.57,12.57,0,0,0-4.79,8.15,10.12,10.12,0,0,0,3.1,9.06c2.75,2.43,5.88,1.32,8.74,2.42a1.42,1.42,0,0,0-.68.78c-.83,2-2,2.92-2.48,5.12a8.77,8.77,0,0,0,2.06,8.13c2.85,3.12,5,2.72,7,6.73s2.67,6.5,6.62,9.08C2410.16,1291.49,2416.55,1283.37,2411.69,1279.05Z" transform="translate(357.5 226.56)"/><path class="cls-5" d="M2390.24,1364.22c-1.67-7.58-6.88-11.25-14.76-12.23a24.7,24.7,0,0,0-12.24,1.61c-8.28,3.32-10.64,4.48-21,5.29-6.57.52-5.71.43-11.52,2.61-12.2,4.59-13.21,3.27-23.43.92a40.42,40.42,0,0,0-14.83-.4c-.79.13-1.57.32-2.35.46,2.81-2.68,5-5.8,5.57-8.75a2.36,2.36,0,0,0-2.23-2.93c-4.74-.51-8.34,2-12.3,4.52-.9.58-1.59,1-2.16,1.38a3.71,3.71,0,0,0-3.29-2,24.72,24.72,0,0,0-4.5.42c-3.35-.93-6.39,0-9.81.47-4.4.65-4.34.55-1.9-3a31.66,31.66,0,0,1,7.77-8.38c2.7-1.86,1.11-7-2.4-5.7-7.11,2.75-14.74,7.34-16.55,15.52-1.46,6.6,3.34,11.07,9.62,11.62a16.78,16.78,0,0,0,3.59-.13c.05.45.12.91.22,1.39,3,13.56,19,7.72,27.72,6.8,12-1.26,18.85,3.56,29.69,5,7.78,1.07,9.61-2.24,16.1-4.79,7.36-2.89,15.08.88,22.37-1.81,3.12-1.15,5.13-4.26,8.13-5.45,6.56-2.6,14.07.4,20.45,1.56A3.36,3.36,0,0,0,2390.24,1364.22Z" transform="translate(357.5 226.56)"/><path class="cls-5" d="M2421.93,1443.56c-2.91-6.88-5.2-4.53-10.11-10.89-10.46-13.52-2.21-7.61-.22-14.69,1.7-6.06,1.73-8.54-1.59-14-2.85-4.74-3.05-3.89-2.89-8.64.17-5.33,2.34-8.94,1.4-14.73-1.12-6.88-3.37-11.65-9.64-14.63-1.84-.87-4.86.12-4.57,2.63.65,5.63,3.39,10.66,2.94,16.46-.37,4.79-4.16,9.76-3.94,14.79.13,3,2.21,5,3,7.56q4.7,3.15.56,7.94a30,30,0,0,0-2.9,4.24c-4.5,13.86,10.83,33.36,25.53,29.88C2422.31,1448.77,2422.88,1445.81,2421.93,1443.56Z" transform="translate(357.5 226.56)"/><path class="cls-5" d="M2476.25,1403.09c-1.48-3.68-.57-1.75,1-5.92,1.06-2.75,2-4.69,1.72-7.64-.34-4.31-3-6.13-5.17-9.45-3.82-5.84-4.47-11.29-5.59-17.84-.51-2.94-4.17-3.81-6.46-2.62-6.14,3.19-7.54,8.2-6.55,14.92,1.09,7.41,10.06,12.78,8.27,20-1.19,4.75-4.94,6.81-1.91,12.42,1,1.84,3.35,2.63,4.41,4.24,5.32,8-1.82,15.62-9.36,19.83-3.71,2.06-1.21,8.52,2.95,7,8.08-3,14.25-6.78,18.15-14.88,1.76-3.65,3.07-7.69,2.7-11.75C2480,1406.46,2477.85,1407.08,2476.25,1403.09Z" transform="translate(357.5 226.56)"/><path class="cls-5" d="M2480.74,1314.43c.49-6.52-3.49-7.27-6.5-11.57q-3.72,0-2.87-3.43a6.52,6.52,0,0,0,1.7-2.93c0-2.73,1.34-4.91,1-7.75-.63-5.64-4.65-8.58-7.25-13.19-3.27-5.78-3.22-11.9-5.09-18-.79-2.59-4.38-3.88-6.35-1.67-5.73,6.41-5.93,14.1-2.52,22,2.55,5.87,6.12,10.25,5.54,16.49-.39,4.24-2.48,6.08-1.14,10.58,1,3.28,2.46,4.29,4.43,6.17a4,4,0,0,0,.05,2.72,5.66,5.66,0,0,1,.24,1.36,5.2,5.2,0,0,0,1.83,3.66,36.27,36.27,0,0,0-3.66,2.83c-5.89,6.49-6.27,13.11-1.66,20.56,2.93,4.73,10,.55,7.45-4.36C2463.13,1332.46,2480.19,1321.77,2480.74,1314.43Z" transform="translate(357.5 226.56)"/><path class="cls-5" d="M2348.21,1209.78a3.93,3.93,0,0,0-6.62-2.74c-6.91,6-6.76,12.8-6.17,21.49.58,8.44.42,14-2.05,22.48-.93,3.23-2.63,6-2.77,9.51-.17,4,1.81,6.51,2.18,10.17q3.28,6.78-.56,14.69a27.32,27.32,0,0,0-4,2.7c-2.76,5.12-5.73,6.37-4.07,12.92.9,3.59,6.27,2.75,6.35-.86.1-4,12.55-7.74,15.2-11.41,4.66-6.47,1.4-12.55.11-19.34-2.11-11,3-18,3.56-28.38C2349.91,1230.9,2348.45,1220,2348.21,1209.78Z" transform="translate(357.5 226.56)"/><path class="cls-5" d="M2116.75,1163.68c-8.65-4.6-20.91-5.85-30.56-4.65-12.59,1.56-13.69,12.22-23.31,18.57-7.38,4.88-18.14,6.13-23.68,13.69-6.42,8.76-2.71,24.33-1.58,34.06a2.92,2.92,0,0,0,5.83,0c1.08-9.9-1.49-24.11,8.27-30.41,5.66-3.65,13.16-4.27,19-8.17s9-9.13,15-12.51c9.32-5.27,18.4-.28,28.58-1.42C2118.7,1172.34,2121.47,1166.2,2116.75,1163.68Z" transform="translate(357.5 226.56)"/><path class="cls-5" d="M2046.78,1387.32c-4.53-.51-22.57-25-21.9-31.24.68-6.48,6.84-10,4.38-17.64-2.84-8.83-11.51-7.35-11.23-16a1.6,1.6,0,0,0,1.49-2.13l-.27-1.06a1.38,1.38,0,0,0-.6-.83c1.45-5.57,6.06-9.76,6.87-15.78.56-4.17-.29-8.19-1-12.29-.6-3.74-7-2.91-6.67.91,1.5,15.68-22,27-10.87,42.6,3.71,5.2,9.86,4.58,8.59,12.59-.77,4.88-5.24,7.79-4.73,13.4.45,4.94,3.15,6.25,5.67,10,4.33,6.45,6,14.94,10.68,21.19,6.26,8.3,16.57,11,22.55,1.5C2051.32,1390.11,2049.24,1387.59,2046.78,1387.32Z" transform="translate(357.5 226.56)"/><path class="cls-5" d="M2227.8,1333.14c-3.22-1.93-6.4.65-6.79,3.89a15.3,15.3,0,0,0,.48,7.06c2.35,9.92,4.74,11.74-1.95,20.56-3.4,4.47-5.49,7.19-5.41,13.19,0,2.9,2.08,6,2,8.7-.37,8-6.38,8.59-11,13-3.43,3.3-4.2,6.33-4.54,11-.36,5,7,4.71,7.59,0,.71-5.63,18.19-8.2,20.28-17.13a21.16,21.16,0,0,0,.08-6.55c-.59-7.23-.8-8.92,2.74-15.12C2238.05,1359.84,2242.67,1342.05,2227.8,1333.14Z" transform="translate(357.5 226.56)"/><path class="cls-5" d="M2242.2,1250.43c-1.81-11.22-14.1-13.1-16.38-22.19-2.25-8.92,1.29-16-7.23-22.34-3.18-2.38-6.39-4-9.58-6.21.91-5.27,3.8-11.11,3-16a17.09,17.09,0,0,0-4.42-9.13c-6.94-7.49-17.09-3-23.5-8.85-5.69-5.22-10.29-10-19-7.92-5.33,1.28-8.23,6-13.31,7.64-5.32,1.74-9.59-.8-14.54,2.44a4.63,4.63,0,0,0-2.08,5.1l.64,2c.74,2.34,2.63,4.7,5.18,5.19,6.92,1.31,13.6,1.15,20-2.31,5.6-3,6.83-4,12.57-.21,2.12,1.4,3.39,3.72,5.94,4.87,3.08,1.39,6,.51,9,1.42a9.5,9.5,0,0,1,1.6-.26,4.58,4.58,0,0,0,1.35,4.37,9.6,9.6,0,0,1,2.22,3.51,7.73,7.73,0,0,0-6.93,3.52l-1.46,2c-1.55,2.18-.39,5.58,1.79,6.83,3.95,2.25,6.62,5.19,10.13,8,2.06,1.63,9,3.86,10.26,5.5,5.44,6.84-.41,16.24,5.49,23.75a16.47,16.47,0,0,0,5.48,4,3.71,3.71,0,0,0-1,2.9c.3,2.53.55,5.09,1,7.6.48,2.67.72,5.17,2.77,7.15a5.17,5.17,0,0,0,4,1.25c-.9,2.22-2,4.53-3,7-3.58,9-4.29,15.92-.48,24.67,2.28,5.21,11.33,1.47,9.28-3.91-3.57-9.33,6.31-20.12,9.33-28.3C2241.9,1259.35,2242.93,1255,2242.2,1250.43Z" transform="translate(357.5 226.56)"/><path class="cls-5" d="M2100.32,1256.08c1.87-7.8-1.37-13.83-7.31-18.51-2.76-2.17-7.13.5-5.15,4,7.5,13.1-11.88,16.8-12,27.42,0,2.49,1.71,4.36,2.16,6.69.93,4.87,2,.16.09,5.2-2.62,6.81-8.22,10-8.89,18.34-.75,9.3,2.08,17.52,8.86,23.85,1.71,1.59,5.12,1.12,5.61-1.48,1.24-6.5-.2-11.41-.11-18,.13-9.29,6.51-11.63,10-18.88,3.37-7.07,0-9-1.06-15a6.26,6.26,0,0,0-2.21-2.13,7,7,0,0,0,4.62-2C2097.42,1262.51,2099.36,1260.09,2100.32,1256.08Z" transform="translate(357.5 226.56)"/><path class="cls-5" d="M2114.13,1392.8c-6.18-5.24,1.53-17.22-3.2-24.38-5.15-7.82-16.94-3.29-19.86-14.54-1-3.94-6.71-2.24-6,1.65.82,4.52,2,8.93,5.15,12.42a20.22,20.22,0,0,0,4.37,3,4.6,4.6,0,0,0-1,4.6,32.52,32.52,0,0,0,5,9c.1.12.24.26.36.38a22.09,22.09,0,0,0,0,7.12,15.09,15.09,0,0,0,7.43,10.85C2112.45,1406.52,2119.83,1397.63,2114.13,1392.8Z" transform="translate(357.5 226.56)"/><path class="cls-5" d="M1893.51,1356.55c-5.36-2.94-10.46-4.64-16.63-4.06-9.72.91-15.9,9.11-26.1,8.86-7.56-.19-12-3.54-19.7-.63-2.52,1-4.51,3-6.95,4-10,4-15.76-.8-23.53-5.07a3.24,3.24,0,0,0-1.43-.37c2-2.06,2.37-6-.71-7.29-19.83-8.57-6.71-33-7.41-49.5-.22-5.31-2.08-11.53-.88-16.72,1.09-4.68,4.6-9.09,6.95-13.22,3.61-6.32,7.06-12.39,9.37-19.34a73.61,73.61,0,0,0,3.54-18.54c.49-7.33-2.21-14.46-2-21.52a12.1,12.1,0,0,1,.29-2.17,15.12,15.12,0,0,0,7.36-8,3.78,3.78,0,0,0,4.44-.77c4.4-5.06,3.71-12,7.85-17.57a46.46,46.46,0,0,1,10.71-9.84,49.31,49.31,0,0,0,4.79,1.47c6.32,1.57,11.72,1,15.52,3.12,1.76,4.1,1.85,8.84,4.93,12.84a6.06,6.06,0,0,0,.76.76c.3,5.82-.7,11.22-.72,17.35,0,6,1.7,13-.07,18.79-.77,2.57-3.78,4.81-4.81,7.45-1.69,4.31-1.68,8.28-1,12.72,1.44,8.93,8.74,15,2,22.14-3.32,3.53-7.57,3.06-10.9,6.09-3.56,3.24-4,25.69-.94,25.81-3.75-.14-5.61,5.7-2,7.37,4.79,2.21,8.68,2.69,12.34-2.3a11,11,0,0,0,2-7.19,17.39,17.39,0,0,0-1.61-6.69q-3.52-10.31,4.38-9.33c4.14-3.15,8-2.93,10.57-8.36,5.12-10.62-2.61-18.1-3.29-28.24-.64-9.5,4.67-10.81,7.2-18.33,1.57-4.66,1-9,.37-13.73-1.41-11.53,4.59-23.76,1-34.94-2.56-8-9.27-14.33-17.13-17.66A28.37,28.37,0,0,0,1845,1159a7.81,7.81,0,0,0-2.15-.66c-10.74-1.42-23.31.84-30.18,10-6.45,8.6-3.16,19.55-4.9,29.08-2.68,1.38-5.39,2.76-7,5-3.12,4.45-2.07,8.07-1.79,13.16.86,15.69.13,29.74-7.42,43.9-4.58,8.59-11.33,16-13.2,25.76-1.92,10.08,1.69,19.85-.21,30.09-1.59,8.53-5.07,16.67-3.8,25.51,1.6,11.24,9.82,22.43,21.72,19.83a3,3,0,0,0-.45,2.71c4.3,14,18,17.43,30.75,13.66,7.49-2.22,12.89-4.44,21.08-3.82,3.39.26,6.13,1.75,9.7,1.48,12-.89,16.16-15.07,30-7.43C1894.25,1371.18,1900.55,1360.41,1893.51,1356.55Z" transform="translate(357.5 226.56)"/><path class="cls-5" d="M1995.54,1387.45c-1.23-2.31-4.58-4.67-5.48-7.1-2.9-7.86,1.5-11.09,2.64-17.66,2.49-14.33-10.75-24.84-8.91-39.1.8-6.22-8.63-8-11.39-3.09-4.11,7.34-4,12.54-1,20.71,2.29,6.32,5.31,9.36,5.62,16.35.27,6.31-2,8.76-3,14.45-1.16,6.16.23,10.45,3.87,15.47,6.54,9,3.78,10.92-1.9,18.78-3.35,4.65-2.72,7.47-3.25,12.75-.78,7.8,15.34.35-3.39,15.21-1.92,1.53-4.89,1.51-6.92,3.13-4.44,3.55-4.52,8.16-7.25,8.77a4.66,4.66,0,0,0-.24-1.67l-1.11-3c-.74-2-3.36-3.76-5.46-2.22-3.85,2.84-12.7-5.09-15.42-9.13-6.53-9.72,1.7-20.72-1.29-31.71-2.76-10.15-3.09-11.58-3.53-20.65-.21-4.37-.21-6.86-2.18-10.92-3.23-6.66-7.53-9-14.69-9.12-4.09,0-5.17,6.46-1,7.3,10.39,2.1,5.11,18,5.5,24.32s4.87,12.55,4.45,18.57c-.7,9.91-8.78,18.44-1.61,28.31,1.77,2.44,4.69,3.14,6.73,5,2.91,2.69,4.1,6.43,7.07,9.26,3.8,3.64,8,5,12.08,4.49,2.26,2.84,4.72,5.47,8.36,6.2,5.21,1,8.63-1.42,12.15-4.79a23.22,23.22,0,0,0,3.38-5.9,9.69,9.69,0,0,1,8.75-4.84c4-2.13,6.42-3.1,9.14-6.83,4.36-6,3.64-11.6,2-18.29-1.4-5.8-2.54-3.13.36-8.57,1.13-2.12,4.38-3.88,5.85-6C1998.58,1400,1999,1393.92,1995.54,1387.45Z" transform="translate(357.5 226.56)"/><path class="cls-5" d="M1927.72,1275.21c1.66-4,4.33-6.41,4.17-11.2-.1-3.32-2-5.62-3.18-8.38q-1.93-1.64-4-3.17a17.53,17.53,0,0,1,4.17-12c3.85-9.43,5-17.28-.43-26-2.66-4.25-9.9-2.73-9.75,2.64q.3,6.72,0,13.45-3,6.26-6.56,12.26a23.69,23.69,0,0,0-1.84,6.77,14.18,14.18,0,0,0,1.88,8.3c.69,1.23,5.9,5.53,6,5.84,1.26,7.66-10.54,13.85-9,23.46,1,6.47,12.72,14.41,11.54,20-.94,4.42,4.9,7.1,7.37,3.11,3.74-6,2.9-10.54-.9-16.39q-7.85-5.3-3.36-14.13A42.47,42.47,0,0,0,1927.72,1275.21Z" transform="translate(357.5 226.56)"/><path class="cls-5" d="M2000.34,1237.79c-.55-5-2.6-7.51-5.55-11.39-5.32-7-6.75-7.83-2.92-16,8.89-19-14.29-35.74-32.2-31.76-2.74.61-3.6,3.8-2.46,6,2.8,5.55,3.65,5.87,9.26,8.81,7.13,3.73,13,4.13,10.88,12.75-1.77,7.24-7.17,11.4-3.83,19.51,1.17,2.83,3.49,4.14,5,6.4q9.06,4.84,3.92,17.46-2,2.42-3.89,4.9c-1.28,6.48-2.49,9.54,2,14.87,2.87,3.45,9-.24,7.54-4.39-1.53-4.41,8.06-11.59,10-15.39A21.7,21.7,0,0,0,2000.34,1237.79Z" transform="translate(357.5 226.56)"/><text class="cls-6" transform="translate(2128.55 1682.19)">404</text><g class="cls-7"><g class="cls-8"><circle class="cls-9" cx="2576.29" cy="1635.03" r="1"/><circle class="cls-9" cx="2569.24" cy="1639.98" r="1"/><circle class="cls-9" cx="2573.18" cy="1642.53" r="1"/><circle class="cls-9" cx="2577.5" cy="1621.32" r="1"/><circle class="cls-9" cx="2566.43" cy="1637.36" r="1"/><circle class="cls-9" cx="2576.7" cy="1624.13" r="1"/><circle class="cls-9" cx="2571.65" cy="1642.86" r="1"/><circle class="cls-9" cx="2570.55" cy="1644.05" r="1"/><circle class="cls-9" cx="2567.03" cy="1640.15" r="1"/><circle class="cls-9" cx="2576.49" cy="1650.19" r="1"/><circle class="cls-9" cx="2578.93" cy="1651.35" r="1"/><circle class="cls-9" cx="2575.96" cy="1644.88" r="1"/><circle class="cls-9" cx="2568.39" cy="1646.54" r="1"/><circle class="cls-9" cx="2584.28" cy="1612.2" r="1"/><circle class="cls-9" cx="2570.21" cy="1624.71" r="1"/><circle class="cls-9" cx="2584.72" cy="1605.78" r="1"/><circle class="cls-9" cx="2571.45" cy="1639.26" r="1"/><circle class="cls-9" cx="2584.91" cy="1649.41" r="1"/><circle class="cls-9" cx="2561.76" cy="1619.12" r="1"/><circle class="cls-9" cx="2579.66" cy="1652.53" r="1"/><circle class="cls-9" cx="2565.14" cy="1639.37" r="1"/><circle class="cls-9" cx="2584.56" cy="1621.87" r="1"/><circle class="cls-9" cx="2579.5" cy="1637.86" r="1"/><circle class="cls-9" cx="2575.82" cy="1615.38" r="1"/><circle class="cls-9" cx="2582.31" cy="1633.01" r="1"/><circle class="cls-9" cx="2581.48" cy="1649.57" r="1"/><circle class="cls-9" cx="2574.4" cy="1609.29" r="1"/><circle class="cls-9" cx="2578.64" cy="1623.25" r="1"/><circle class="cls-9" cx="2569.57" cy="1647.8" r="1"/><circle class="cls-9" cx="2571.59" cy="1611.12" r="1"/><circle class="cls-9" cx="2581" cy="1615.48" r="1"/><circle class="cls-9" cx="2565.9" cy="1646.99" r="1"/><circle class="cls-9" cx="2567.06" cy="1617.13" r="1"/><circle class="cls-9" cx="2583.55" cy="1650.32" r="1"/><circle class="cls-9" cx="2571.17" cy="1621.31" r="1"/><circle class="cls-9" cx="2566.03" cy="1641.61" r="1"/><circle class="cls-9" cx="2575.51" cy="1652.84" r="1"/><circle class="cls-9" cx="2584.65" cy="1641.47" r="1"/><circle class="cls-9" cx="2582.51" cy="1609.48" r="1"/><circle class="cls-9" cx="2582.61" cy="1624.22" r="1"/><circle class="cls-9" cx="2582.29" cy="1629.79" r="1"/><circle class="cls-9" cx="2565.63" cy="1635.34" r="1"/><circle class="cls-9" cx="2582.46" cy="1619.82" r="1"/><circle class="cls-9" cx="2575.3" cy="1633.58" r="1"/><circle class="cls-9" cx="2561.4" cy="1624.61" r="1"/><circle class="cls-9" cx="2580.84" cy="1647.59" r="1"/><circle class="cls-9" cx="2583.93" cy="1634.77" r="1"/><circle class="cls-9" cx="2574.59" cy="1643.45" r="1"/><circle class="cls-9" cx="2573.74" cy="1630.87" r="1"/><circle class="cls-9" cx="2552.59" cy="1623.08" r="1"/><circle class="cls-9" cx="2580.77" cy="1638.56" r="1"/><circle class="cls-9" cx="2569.12" cy="1643.97" r="1"/><circle class="cls-9" cx="2575.86" cy="1620.53" r="1"/><circle class="cls-9" cx="2574.81" cy="1637.57" r="1"/><circle class="cls-9" cx="2571.47" cy="1648.33" r="1"/><circle class="cls-9" cx="2564.88" cy="1644.9" r="1"/><circle class="cls-9" cx="2567.39" cy="1651.45" r="1"/><circle class="cls-9" cx="2570.72" cy="1635.97" r="1"/><circle class="cls-9" cx="2577.3" cy="1639.73" r="1"/><circle class="cls-9" cx="2565.48" cy="1642.69" r="1"/><circle class="cls-9" cx="2576.05" cy="1646.85" r="1"/><circle class="cls-9" cx="2584.74" cy="1647.2" r="1"/><circle class="cls-9" cx="2568.65" cy="1612.72" r="1"/><circle class="cls-9" cx="2550.89" cy="1627.77" r="1"/><circle class="cls-9" cx="2572.03" cy="1640.72" r="1"/><circle class="cls-9" cx="2579.5" cy="1642.22" r="1"/><circle class="cls-9" cx="2577.86" cy="1653.22" r="1"/><circle class="cls-9" cx="2559" cy="1618.96" r="1"/><circle class="cls-9" cx="2581.43" cy="1632.66" r="1"/><circle class="cls-9" cx="2574" cy="1650.59" r="1"/><circle class="cls-9" cx="2582.79" cy="1623.03" r="1"/><circle class="cls-9" cx="2564.72" cy="1629.54" r="1"/><circle class="cls-9" cx="2578.21" cy="1643.89" r="1"/><circle class="cls-9" cx="2567.89" cy="1624.43" r="1"/><circle class="cls-9" cx="2568.57" cy="1638.44" r="1"/><circle class="cls-9" cx="2572.94" cy="1615.94" r="1"/><circle class="cls-9" cx="2578.64" cy="1649.43" r="1"/><circle class="cls-9" cx="2569.94" cy="1653.1" r="1"/><circle class="cls-9" cx="2578" cy="1618.38" r="1"/><circle class="cls-9" cx="2569.49" cy="1634.5" r="1"/><circle class="cls-9" cx="2584.31" cy="1638.31" r="1"/><circle class="cls-9" cx="2572.9" cy="1645.62" r="1"/><circle class="cls-9" cx="2567.27" cy="1628.17" r="1"/><circle class="cls-9" cx="2560.03" cy="1627.09" r="1"/><circle class="cls-9" cx="2577.67" cy="1638.7" r="1"/><circle class="cls-9" cx="2579.39" cy="1608.35" r="1"/><circle class="cls-9" cx="2574.35" cy="1613.57" r="1"/><circle class="cls-9" cx="2585.04" cy="1631.57" r="1"/><circle class="cls-9" cx="2583.52" cy="1631.48" r="1"/><circle class="cls-9" cx="2576.72" cy="1627.82" r="1"/><circle class="cls-9" cx="2579.24" cy="1627.96" r="1"/><circle class="cls-9" cx="2575.29" cy="1618.1" r="1"/><circle class="cls-9" cx="2580.94" cy="1641.39" r="1"/><circle class="cls-9" cx="2582.79" cy="1640.13" r="1"/><circle class="cls-9" cx="2582.28" cy="1651.27" r="1"/><circle class="cls-9" cx="2583.08" cy="1644.32" r="1"/><circle class="cls-9" cx="2575.68" cy="1648.83" r="1"/><circle class="cls-9" cx="2578.35" cy="1614.83" r="1"/><circle class="cls-9" cx="2574.88" cy="1649.87" r="1"/><circle class="cls-9" cx="2585.45" cy="1600.64" r="1"/><circle class="cls-9" cx="2568.61" cy="1652.89" r="1"/><circle class="cls-9" cx="2576.92" cy="1641.91" r="1"/><circle class="cls-9" cx="2576.46" cy="1637.94" r="1"/><circle class="cls-9" cx="2564.6" cy="1626.79" r="1"/><circle class="cls-9" cx="2584.24" cy="1616.38" r="1"/><circle class="cls-9" cx="2579.28" cy="1643.43" r="1"/><circle class="cls-9" cx="2577.68" cy="1647.08" r="1"/><circle class="cls-9" cx="2584.51" cy="1626.6" r="1"/><circle class="cls-9" cx="2581.6" cy="1626.92" r="1"/><circle class="cls-9" cx="2576.95" cy="1633.13" r="1"/><circle class="cls-9" cx="2572.03" cy="1637.08" r="1"/><circle class="cls-9" cx="2573.71" cy="1648.62" r="1"/><circle class="cls-9" cx="2571.82" cy="1633.8" r="1"/><circle class="cls-9" cx="2571.17" cy="1631.79" r="1"/><circle class="cls-9" cx="2576.72" cy="1651.91" r="1"/><circle class="cls-9" cx="2572.57" cy="1605.76" r="1"/><circle class="cls-9" cx="2572.41" cy="1626.93" r="1"/><circle class="cls-9" cx="2554.16" cy="1628.45" r="1"/><circle class="cls-9" cx="2578.26" cy="1602.06" r="1"/><circle class="cls-9" cx="2580.24" cy="1645.24" r="1"/><circle class="cls-9" cx="2581.92" cy="1636.46" r="1"/><circle class="cls-9" cx="2579.45" cy="1625.84" r="1"/><circle class="cls-9" cx="2584.62" cy="1628.82" r="1"/><circle class="cls-9" cx="2567.19" cy="1631.86" r="1"/><circle class="cls-9" cx="2570.55" cy="1651.93" r="1"/><circle class="cls-9" cx="2571.74" cy="1623.06" r="1"/><circle class="cls-9" cx="2571.09" cy="1650.26" r="1"/><circle class="cls-9" cx="2568.85" cy="1632.26" r="1"/><circle class="cls-9" cx="2579.39" cy="1631.03" r="1"/><circle class="cls-9" cx="2546.87" cy="1626.85" r="1"/><circle class="cls-9" cx="2583.75" cy="1646.62" r="1"/><circle class="cls-9" cx="2582.16" cy="1646.82" r="1"/><circle class="cls-9" cx="2568.42" cy="1649.98" r="1"/></g><g class="cls-10"><circle class="cls-9" cx="2444.37" cy="1633.1" r="1"/><circle class="cls-9" cx="2442.21" cy="1617.16" r="1"/><circle class="cls-9" cx="2442.79" cy="1649.18" r="1"/><circle class="cls-9" cx="2441.89" cy="1631.43" r="1"/><circle class="cls-9" cx="2434.72" cy="1626.81" r="1"/><circle class="cls-9" cx="2441.42" cy="1612.64" r="1"/><circle class="cls-9" cx="2437.13" cy="1650.1" r="1"/><circle class="cls-9" cx="2433.91" cy="1614.5" r="1"/><circle class="cls-9" cx="2416.33" cy="1625.89" r="1"/><circle class="cls-9" cx="2436.86" cy="1639.92" r="1"/><circle class="cls-9" cx="2424.85" cy="1633.73" r="1"/><circle class="cls-9" cx="2444.59" cy="1628.3" r="1"/><circle class="cls-9" cx="2432.08" cy="1650.25" r="1"/><circle class="cls-9" cx="2437.16" cy="1641.5" r="1"/><circle class="cls-9" cx="2432.84" cy="1646.4" r="1"/><circle class="cls-9" cx="2432.67" cy="1618.1" r="1"/><circle class="cls-9" cx="2432.94" cy="1653.24" r="1"/><circle class="cls-9" cx="2442.06" cy="1638.21" r="1"/><circle class="cls-9" cx="2438.54" cy="1639.7" r="1"/><circle class="cls-9" cx="2429.56" cy="1624.19" r="1"/><circle class="cls-9" cx="2436.5" cy="1648.4" r="1"/><circle class="cls-9" cx="2408.79" cy="1626.38" r="1"/><circle class="cls-9" cx="2419.73" cy="1622.82" r="1"/><circle class="cls-9" cx="2436.39" cy="1622.54" r="1"/><circle class="cls-9" cx="2423.41" cy="1616.82" r="1"/><circle class="cls-9" cx="2431.47" cy="1636.07" r="1"/><circle class="cls-9" cx="2428.08" cy="1622.74" r="1"/><circle class="cls-9" cx="2430.38" cy="1651.82" r="1"/><circle class="cls-9" cx="2429.8" cy="1645.9" r="1"/><circle class="cls-9" cx="2440.75" cy="1624.89" r="1"/><circle class="cls-9" cx="2441.28" cy="1636.82" r="1"/><circle class="cls-9" cx="2431.97" cy="1623.58" r="1"/><circle class="cls-9" cx="2424.39" cy="1640.42" r="1"/><circle class="cls-9" cx="2442.94" cy="1623.27" r="1"/><circle class="cls-9" cx="2427.78" cy="1648.47" r="1"/><circle class="cls-9" cx="2442.67" cy="1633.72" r="1"/><circle class="cls-9" cx="2436.13" cy="1631" r="1"/><circle class="cls-9" cx="2427.21" cy="1651.54" r="1"/><circle class="cls-9" cx="2443.79" cy="1631.59" r="1"/><circle class="cls-9" cx="2439.2" cy="1619.05" r="1"/><circle class="cls-9" cx="2438.33" cy="1635.75" r="1"/><circle class="cls-9" cx="2413.77" cy="1628.53" r="1"/><circle class="cls-9" cx="2435.79" cy="1650.9" r="1"/><circle class="cls-9" cx="2438.73" cy="1653.17" r="1"/><circle class="cls-9" cx="2434.89" cy="1629.6" r="1"/><circle class="cls-9" cx="2434.94" cy="1641.42" r="1"/><circle class="cls-9" cx="2434.84" cy="1647.07" r="1"/><circle class="cls-9" cx="2436.42" cy="1644.54" r="1"/><circle class="cls-9" cx="2428.53" cy="1634.99" r="1"/><circle class="cls-9" cx="2428.66" cy="1640.94" r="1"/><circle class="cls-9" cx="2442.98" cy="1648.02" r="1"/><circle class="cls-9" cx="2428.11" cy="1621.45" r="1"/><circle class="cls-9" cx="2437.69" cy="1624.8" r="1"/><circle class="cls-9" cx="2438.81" cy="1616.3" r="1"/><circle class="cls-9" cx="2438.11" cy="1633.93" r="1"/><circle class="cls-9" cx="2425.41" cy="1649.18" r="1"/><circle class="cls-9" cx="2437.07" cy="1637.67" r="1"/><circle class="cls-9" cx="2443.78" cy="1644.37" r="1"/><circle class="cls-9" cx="2418.65" cy="1628.03" r="1"/><circle class="cls-9" cx="2443.89" cy="1625.48" r="1"/><circle class="cls-9" cx="2430.1" cy="1637.62" r="1"/><circle class="cls-9" cx="2438.34" cy="1645.4" r="1"/><circle class="cls-9" cx="2441.26" cy="1643.2" r="1"/><circle class="cls-9" cx="2434.98" cy="1652.62" r="1"/><circle class="cls-9" cx="2440.47" cy="1650.66" r="1"/><circle class="cls-9" cx="2434.09" cy="1619.78" r="1"/><circle class="cls-9" cx="2434.44" cy="1648.79" r="1"/><circle class="cls-9" cx="2440.5" cy="1646.96" r="1"/><circle class="cls-9" cx="2431.86" cy="1629.07" r="1"/><circle class="cls-9" cx="2439.8" cy="1637.77" r="1"/><circle class="cls-9" cx="2430.39" cy="1630.99" r="1"/><circle class="cls-9" cx="2439" cy="1648.42" r="1"/><circle class="cls-9" cx="2432.09" cy="1633.65" r="1"/><circle class="cls-9" cx="2444.13" cy="1639.07" r="1"/><circle class="cls-9" cx="2417.17" cy="1619.79" r="1"/><circle class="cls-9" cx="2438.91" cy="1642.22" r="1"/><circle class="cls-9" cx="2426.07" cy="1640.8" r="1"/><circle class="cls-9" cx="2440.25" cy="1652.34" r="1"/><circle class="cls-9" cx="2427.36" cy="1628.86" r="1"/><circle class="cls-9" cx="2436.63" cy="1618.35" r="1"/><circle class="cls-9" cx="2439.61" cy="1607.97" r="1"/><circle class="cls-9" cx="2440.65" cy="1604.38" r="1"/><circle class="cls-9" cx="2438.41" cy="1626.69" r="1"/><circle class="cls-9" cx="2434.78" cy="1645.47" r="1"/><circle class="cls-9" cx="2423.74" cy="1635.11" r="1"/><circle class="cls-9" cx="2439.96" cy="1630.06" r="1"/><circle class="cls-9" cx="2438.83" cy="1622.62" r="1"/><circle class="cls-9" cx="2432.21" cy="1639.91" r="1"/><circle class="cls-9" cx="2440.96" cy="1639.93" r="1"/><circle class="cls-9" cx="2426.79" cy="1647.18" r="1"/><circle class="cls-9" cx="2443.99" cy="1608.22" r="1"/><circle class="cls-9" cx="2430.26" cy="1612.41" r="1"/><circle class="cls-9" cx="2443.4" cy="1650.75" r="1"/><circle class="cls-9" cx="2440.14" cy="1643.42" r="1"/><circle class="cls-9" cx="2433.73" cy="1640.65" r="1"/><circle class="cls-9" cx="2435.71" cy="1611.33" r="1"/><circle class="cls-9" cx="2426.31" cy="1637.47" r="1"/><circle class="cls-9" cx="2432.81" cy="1609.62" r="1"/><circle class="cls-9" cx="2425.2" cy="1626.03" r="1"/><circle class="cls-9" cx="2434.11" cy="1635.72" r="1"/><circle class="cls-9" cx="2430.08" cy="1628.2" r="1"/><circle class="cls-9" cx="2443.21" cy="1619.99" r="1"/><circle class="cls-9" cx="2428.21" cy="1642.99" r="1"/><circle class="cls-9" cx="2412.92" cy="1626.86" r="1"/><circle class="cls-9" cx="2433.16" cy="1630.88" r="1"/><circle class="cls-9" cx="2432.68" cy="1644.6" r="1"/><circle class="cls-9" cx="2437.62" cy="1614.25" r="1"/><circle class="cls-9" cx="2437.63" cy="1643.56" r="1"/><circle class="cls-9" cx="2436.99" cy="1647.42" r="1"/><circle class="cls-9" cx="2441.29" cy="1632.98" r="1"/><circle class="cls-9" cx="2404" cy="1626.31" r="1"/><circle class="cls-9" cx="2430.41" cy="1606.38" r="1"/><circle class="cls-9" cx="2440" cy="1644.46" r="1"/><circle class="cls-9" cx="2443.15" cy="1645.94" r="1"/><circle class="cls-9" cx="2437.6" cy="1629.99" r="1"/><circle class="cls-9" cx="2426.64" cy="1638.8" r="1"/><circle class="cls-9" cx="2432.15" cy="1647.57" r="1"/><circle class="cls-9" cx="2434.46" cy="1643.45" r="1"/><circle class="cls-9" cx="2430.08" cy="1640.43" r="1"/><circle class="cls-9" cx="2432.09" cy="1626.38" r="1"/><circle class="cls-9" cx="2430.27" cy="1649.16" r="1"/><circle class="cls-9" cx="2428.99" cy="1653.07" r="1"/><circle class="cls-9" cx="2444.3" cy="1598.85" r="1"/><circle class="cls-9" cx="2441.79" cy="1629.18" r="1"/><circle class="cls-9" cx="2430.4" cy="1644.03" r="1"/><circle class="cls-9" cx="2424.92" cy="1631.13" r="1"/><circle class="cls-9" cx="2443.81" cy="1641.65" r="1"/><circle class="cls-9" cx="2428.11" cy="1645.78" r="1"/><circle class="cls-9" cx="2427.48" cy="1631.58" r="1"/><circle class="cls-9" cx="2441.81" cy="1646.41" r="1"/><circle class="cls-9" cx="2424.41" cy="1637.01" r="1"/><circle class="cls-9" cx="2433.27" cy="1651.36" r="1"/><circle class="cls-9" cx="2424.08" cy="1643.59" r="1"/></g><g class="cls-11"><circle class="cls-9" cx="2505.46" cy="1625.47" r="1"/><circle class="cls-9" cx="2501.64" cy="1620.38" r="1"/><circle class="cls-9" cx="2477.96" cy="1647.93" r="1"/><circle class="cls-9" cx="2505.38" cy="1622.99" r="1"/><circle class="cls-9" cx="2485.34" cy="1640.72" r="1"/><circle class="cls-9" cx="2469.04" cy="1650.76" r="1"/><circle class="cls-9" cx="2509.04" cy="1618.78" r="1"/><circle class="cls-9" cx="2475.49" cy="1648.65" r="1"/><circle class="cls-9" cx="2467.58" cy="1646.94" r="1"/><circle class="cls-9" cx="2497.31" cy="1639.7" r="1"/><circle class="cls-9" cx="2495.94" cy="1637.94" r="1"/><circle class="cls-9" cx="2473.82" cy="1627.77" r="1"/><circle class="cls-9" cx="2507.1" cy="1641.07" r="1"/><circle class="cls-9" cx="2473.04" cy="1643.63" r="1"/><circle class="cls-9" cx="2499.14" cy="1645.11" r="1"/><circle class="cls-9" cx="2505.06" cy="1613.21" r="1"/><circle class="cls-9" cx="2512.42" cy="1637.33" r="1"/><circle class="cls-9" cx="2483.63" cy="1653.67" r="1"/><circle class="cls-9" cx="2503.63" cy="1620.59" r="1"/><circle class="cls-9" cx="2484.42" cy="1650.1" r="1"/><circle class="cls-9" cx="2487.08" cy="1641.61" r="1"/><circle class="cls-9" cx="2490.12" cy="1634.38" r="1"/><circle class="cls-9" cx="2514.5" cy="1608.53" r="1"/><circle class="cls-9" cx="2487.7" cy="1644.84" r="1"/><circle class="cls-9" cx="2495.17" cy="1648.75" r="1"/><circle class="cls-9" cx="2498.96" cy="1647.55" r="1"/><circle class="cls-9" cx="2501.13" cy="1625.25" r="1"/><circle class="cls-9" cx="2473.78" cy="1647.77" r="1"/><circle class="cls-9" cx="2478.34" cy="1642.82" r="1"/><circle class="cls-9" cx="2496.86" cy="1628.01" r="1"/><circle class="cls-9" cx="2513.44" cy="1606.9" r="1"/><circle class="cls-9" cx="2473.14" cy="1628.81" r="1"/><circle class="cls-9" cx="2464.61" cy="1634.35" r="1"/><circle class="cls-9" cx="2494.74" cy="1651.96" r="1"/><circle class="cls-9" cx="2515.67" cy="1614.04" r="1"/><circle class="cls-9" cx="2470.81" cy="1649.98" r="1"/><circle class="cls-9" cx="2508.79" cy="1644" r="1"/><circle class="cls-9" cx="2501.69" cy="1646.42" r="1"/><circle class="cls-9" cx="2493.97" cy="1654.25" r="1"/><circle class="cls-9" cx="2488.44" cy="1635.96" r="1"/><circle class="cls-9" cx="2514.99" cy="1630.39" r="1"/><circle class="cls-9" cx="2497.29" cy="1621.77" r="1"/><circle class="cls-9" cx="2486.44" cy="1647.37" r="1"/><circle class="cls-9" cx="2500.86" cy="1627.64" r="1"/><circle class="cls-9" cx="2498.23" cy="1646.83" r="1"/><circle class="cls-9" cx="2501.32" cy="1643.21" r="1"/><circle class="cls-9" cx="2515.04" cy="1601.2" r="1"/><circle class="cls-9" cx="2489.12" cy="1639.7" r="1"/><circle class="cls-9" cx="2498.17" cy="1626.93" r="1"/><circle class="cls-9" cx="2496.74" cy="1650.5" r="1"/><circle class="cls-9" cx="2473.36" cy="1639.73" r="1"/><circle class="cls-9" cx="2508.38" cy="1626.45" r="1"/><circle class="cls-9" cx="2462.41" cy="1644.35" r="1"/><circle class="cls-9" cx="2510.64" cy="1609.86" r="1"/><circle class="cls-9" cx="2497.85" cy="1653.07" r="1"/><circle class="cls-9" cx="2509.04" cy="1628.68" r="1"/><circle class="cls-9" cx="2499.72" cy="1632.08" r="1"/><circle class="cls-9" cx="2507.33" cy="1634.38" r="1"/><circle class="cls-9" cx="2501.77" cy="1636.44" r="1"/><circle class="cls-9" cx="2506.88" cy="1608.2" r="1"/><circle class="cls-9" cx="2473.5" cy="1642.07" r="1"/><circle class="cls-9" cx="2483.32" cy="1652.45" r="1"/><circle class="cls-9" cx="2497.63" cy="1643.75" r="1"/><circle class="cls-9" cx="2504.16" cy="1642.31" r="1"/><circle class="cls-9" cx="2504.28" cy="1635.4" r="1"/><circle class="cls-9" cx="2504.29" cy="1633.95" r="1"/><circle class="cls-9" cx="2464.23" cy="1638.09" r="1"/><circle class="cls-9" cx="2495.41" cy="1654.19" r="1"/><circle class="cls-9" cx="2507.69" cy="1622.72" r="1"/><circle class="cls-9" cx="2469.95" cy="1635.25" r="1"/><circle class="cls-9" cx="2471.64" cy="1649.47" r="1"/><circle class="cls-9" cx="2470.22" cy="1644.7" r="1"/><circle class="cls-9" cx="2504.53" cy="1644.52" r="1"/><circle class="cls-9" cx="2499.89" cy="1642.76" r="1"/><circle class="cls-9" cx="2513.42" cy="1629.4" r="1"/><circle class="cls-9" cx="2517.72" cy="1616.99" r="1"/><circle class="cls-9" cx="2502.12" cy="1610.41" r="1"/><circle class="cls-9" cx="2471.8" cy="1631.18" r="1"/><circle class="cls-9" cx="2505.79" cy="1631.6" r="1"/><circle class="cls-9" cx="2511.3" cy="1638.94" r="1"/><circle class="cls-9" cx="2493.96" cy="1634.95" r="1"/><circle class="cls-9" cx="2507.54" cy="1644.15" r="1"/><circle class="cls-9" cx="2485.48" cy="1652.63" r="1"/><circle class="cls-9" cx="2502.23" cy="1630.33" r="1"/><circle class="cls-9" cx="2510.09" cy="1623.97" r="1"/><circle class="cls-9" cx="2478.69" cy="1636.05" r="1"/><circle class="cls-9" cx="2492.06" cy="1650.06" r="1"/><circle class="cls-9" cx="2500.06" cy="1615.65" r="1"/><circle class="cls-9" cx="2513.22" cy="1603.99" r="1"/><circle class="cls-9" cx="2486.61" cy="1637.6" r="1"/><circle class="cls-9" cx="2513.97" cy="1635.3" r="1"/><circle class="cls-9" cx="2486.14" cy="1650.17" r="1"/><circle class="cls-9" cx="2475.4" cy="1643.71" r="1"/><circle class="cls-9" cx="2487.37" cy="1651.61" r="1"/><circle class="cls-9" cx="2472.54" cy="1651.04" r="1"/><circle class="cls-9" cx="2492.19" cy="1652.3" r="1"/><circle class="cls-9" cx="2496.7" cy="1626.01" r="1"/><circle class="cls-9" cx="2471.48" cy="1642.47" r="1"/><circle class="cls-9" cx="2482.82" cy="1653.32" r="1"/><circle class="cls-9" cx="2498.43" cy="1641.79" r="1"/><circle class="cls-9" cx="2481.5" cy="1637.88" r="1"/><circle class="cls-9" cx="2493.65" cy="1628.41" r="1"/><circle class="cls-9" cx="2506.61" cy="1616.91" r="1"/><circle class="cls-9" cx="2514.27" cy="1618.59" r="1"/><circle class="cls-9" cx="2468.67" cy="1642.15" r="1"/><circle class="cls-9" cx="2497.57" cy="1634.32" r="1"/><circle class="cls-9" cx="2495.24" cy="1641.93" r="1"/><circle class="cls-9" cx="2480.4" cy="1645.12" r="1"/><circle class="cls-9" cx="2507.13" cy="1646.54" r="1"/><circle class="cls-9" cx="2470.4" cy="1651.88" r="1"/><circle class="cls-9" cx="2495.53" cy="1626.04" r="1"/><circle class="cls-9" cx="2482.45" cy="1645.57" r="1"/><circle class="cls-9" cx="2465.09" cy="1645.37" r="1"/><circle class="cls-9" cx="2476.44" cy="1651.08" r="1"/><circle class="cls-9" cx="2505.31" cy="1627.88" r="1"/><circle class="cls-9" cx="2498.3" cy="1637.84" r="1"/><circle class="cls-9" cx="2492.13" cy="1632.55" r="1"/><circle class="cls-9" cx="2500.37" cy="1609.74" r="1"/><circle class="cls-9" cx="2488.82" cy="1646.72" r="1"/><circle class="cls-9" cx="2471.51" cy="1652.92" r="1"/><circle class="cls-9" cx="2497.86" cy="1616.18" r="1"/><circle class="cls-9" cx="2500.61" cy="1649.3" r="1"/><circle class="cls-9" cx="2495.17" cy="1635.5" r="1"/><circle class="cls-9" cx="2481.28" cy="1636.37" r="1"/><circle class="cls-9" cx="2491.79" cy="1655.03" r="1"/><circle class="cls-9" cx="2505.82" cy="1635.62" r="1"/><circle class="cls-9" cx="2496.11" cy="1647.64" r="1"/><circle class="cls-9" cx="2507.77" cy="1619.21" r="1"/><circle class="cls-9" cx="2507.43" cy="1643.17" r="1"/><circle class="cls-9" cx="2481.85" cy="1655.54" r="1"/><circle class="cls-9" cx="2513.16" cy="1624.66" r="1"/><circle class="cls-9" cx="2501.77" cy="1648.74" r="1"/><circle class="cls-9" cx="2507.41" cy="1639.5" r="1"/><circle class="cls-9" cx="2475.83" cy="1654.41" r="1"/><circle class="cls-9" cx="2509.16" cy="1614.45" r="1"/><circle class="cls-9" cx="2509.7" cy="1643.41" r="1"/><circle class="cls-9" cx="2504.71" cy="1603.91" r="1"/><circle class="cls-9" cx="2515.41" cy="1627.21" r="1"/><circle class="cls-9" cx="2475.84" cy="1631.11" r="1"/><circle class="cls-9" cx="2498.18" cy="1632.19" r="1"/><circle class="cls-9" cx="2508.63" cy="1612.74" r="1"/><circle class="cls-9" cx="2483.57" cy="1635.22" r="1"/><circle class="cls-9" cx="2475.7" cy="1637.36" r="1"/><circle class="cls-9" cx="2488.19" cy="1653.13" r="1"/><circle class="cls-9" cx="2498.14" cy="1649.3" r="1"/><circle class="cls-9" cx="2489.2" cy="1655.11" r="1"/><circle class="cls-9" cx="2495.54" cy="1644.38" r="1"/><circle class="cls-9" cx="2501.6" cy="1632.17" r="1"/><circle class="cls-9" cx="2504.87" cy="1632.39" r="1"/><circle class="cls-9" cx="2479.43" cy="1633.54" r="1"/><circle class="cls-9" cx="2489.88" cy="1650.75" r="1"/><circle class="cls-9" cx="2480.12" cy="1654.53" r="1"/><circle class="cls-9" cx="2510.85" cy="1630.95" r="1"/><circle class="cls-9" cx="2506.54" cy="1619.14" r="1"/><circle class="cls-9" cx="2492.43" cy="1646.3" r="1"/><circle class="cls-9" cx="2515.7" cy="1624.89" r="1"/><circle class="cls-9" cx="2493.22" cy="1640.5" r="1"/><circle class="cls-9" cx="2509.58" cy="1637.35" r="1"/><circle class="cls-9" cx="2501.56" cy="1644.38" r="1"/><circle class="cls-9" cx="2474.25" cy="1649.22" r="1"/><circle class="cls-9" cx="2488.64" cy="1649.27" r="1"/><circle class="cls-9" cx="2483.28" cy="1639.14" r="1"/><circle class="cls-9" cx="2498.79" cy="1650.83" r="1"/><circle class="cls-9" cx="2516.58" cy="1607.26" r="1"/><circle class="cls-9" cx="2512.58" cy="1610.99" r="1"/><circle class="cls-9" cx="2487.07" cy="1654.75" r="1"/><circle class="cls-9" cx="2515.63" cy="1618.45" r="1"/><circle class="cls-9" cx="2459.66" cy="1640.31" r="1"/><circle class="cls-9" cx="2489.75" cy="1644.6" r="1"/><circle class="cls-9" cx="2489.94" cy="1653.16" r="1"/><circle class="cls-9" cx="2490.22" cy="1637.24" r="1"/><circle class="cls-9" cx="2508.07" cy="1621.26" r="1"/><circle class="cls-9" cx="2512.77" cy="1634.83" r="1"/><circle class="cls-9" cx="2500" cy="1641.48" r="1"/><circle class="cls-9" cx="2510.25" cy="1636.43" r="1"/><circle class="cls-9" cx="2491.38" cy="1648.39" r="1"/><circle class="cls-9" cx="2499.02" cy="1639.2" r="1"/><circle class="cls-9" cx="2511.8" cy="1627.19" r="1"/><circle class="cls-9" cx="2482.44" cy="1651.53" r="1"/><circle class="cls-9" cx="2516.37" cy="1611.81" r="1"/><circle class="cls-9" cx="2475.7" cy="1646.81" r="1"/><circle class="cls-9" cx="2497.47" cy="1636.24" r="1"/><circle class="cls-9" cx="2512.84" cy="1621.21" r="1"/><circle class="cls-9" cx="2467.22" cy="1628.93" r="1"/><circle class="cls-9" cx="2512.98" cy="1631.75" r="1"/><circle class="cls-9" cx="2478.74" cy="1652.55" r="1"/><circle class="cls-9" cx="2465.59" cy="1649.33" r="1"/><circle class="cls-9" cx="2485.24" cy="1654.15" r="1"/><circle class="cls-9" cx="2486.64" cy="1643.9" r="1"/><circle class="cls-9" cx="2503.85" cy="1630.05" r="1"/><circle class="cls-9" cx="2484.6" cy="1637.08" r="1"/><circle class="cls-9" cx="2476.56" cy="1641.21" r="1"/><circle class="cls-9" cx="2514.69" cy="1622.45" r="1"/><circle class="cls-9" cx="2506.7" cy="1645.27" r="1"/><circle class="cls-9" cx="2512.93" cy="1623.14" r="1"/><circle class="cls-9" cx="2501.12" cy="1647.64" r="1"/><circle class="cls-9" cx="2513.8" cy="1633.02" r="1"/><circle class="cls-9" cx="2492.37" cy="1634.19" r="1"/><circle class="cls-9" cx="2483.35" cy="1655.34" r="1"/><circle class="cls-9" cx="2513.34" cy="1615.31" r="1"/><circle class="cls-9" cx="2499.99" cy="1629.28" r="1"/><circle class="cls-9" cx="2492.18" cy="1636.47" r="1"/><circle class="cls-9" cx="2471.77" cy="1624.23" r="1"/><circle class="cls-9" cx="2468.42" cy="1638.23" r="1"/><circle class="cls-9" cx="2509.91" cy="1632.97" r="1"/><circle class="cls-9" cx="2461.74" cy="1636.78" r="1"/><circle class="cls-9" cx="2507.73" cy="1628.42" r="1"/><circle class="cls-9" cx="2501.94" cy="1650" r="1"/><circle class="cls-9" cx="2484.7" cy="1655.09" r="1"/><circle class="cls-9" cx="2492.78" cy="1647.75" r="1"/><circle class="cls-9" cx="2507.99" cy="1645.55" r="1"/><circle class="cls-9" cx="2463.31" cy="1647.52" r="1"/><circle class="cls-9" cx="2508.45" cy="1601.02" r="1"/><circle class="cls-9" cx="2504.87" cy="1641.38" r="1"/><circle class="cls-9" cx="2492.24" cy="1642.04" r="1"/><circle class="cls-9" cx="2467.17" cy="1639.95" r="1"/><circle class="cls-9" cx="2503.9" cy="1646.52" r="1"/><circle class="cls-9" cx="2495.37" cy="1632.47" r="1"/><circle class="cls-9" cx="2500.58" cy="1651.82" r="1"/><circle class="cls-9" cx="2474.21" cy="1651.5" r="1"/><circle class="cls-9" cx="2490.57" cy="1641.45" r="1"/><circle class="cls-9" cx="2478.75" cy="1648.96" r="1"/><circle class="cls-9" cx="2484.61" cy="1645.66" r="1"/><circle class="cls-9" cx="2500.16" cy="1621.54" r="1"/><circle class="cls-9" cx="2493.91" cy="1646.9" r="1"/><circle class="cls-9" cx="2502.02" cy="1641.35" r="1"/><circle class="cls-9" cx="2508.63" cy="1640.64" r="1"/><circle class="cls-9" cx="2483.18" cy="1650.16" r="1"/><circle class="cls-9" cx="2509.58" cy="1641.93" r="1"/><circle class="cls-9" cx="2478.09" cy="1639.06" r="1"/><circle class="cls-9" cx="2474" cy="1644.84" r="1"/><circle class="cls-9" cx="2493.59" cy="1643.82" r="1"/><circle class="cls-9" cx="2493.1" cy="1630.99" r="1"/><circle class="cls-9" cx="2517.18" cy="1614.61" r="1"/><circle class="cls-9" cx="2514.49" cy="1597.68" r="1"/><circle class="cls-9" cx="2481.13" cy="1648.04" r="1"/><circle class="cls-9" cx="2496.2" cy="1641.17" r="1"/><circle class="cls-9" cx="2510.82" cy="1622.36" r="1"/><circle class="cls-9" cx="2482.62" cy="1641.85" r="1"/><circle class="cls-9" cx="2483.02" cy="1647.66" r="1"/><circle class="cls-9" cx="2473.35" cy="1653.68" r="1"/><circle class="cls-9" cx="2480.24" cy="1650.79" r="1"/><circle class="cls-9" cx="2503.1" cy="1623.9" r="1"/><circle class="cls-9" cx="2507.32" cy="1631.27" r="1"/><circle class="cls-9" cx="2502.6" cy="1638.56" r="1"/><circle class="cls-9" cx="2495.37" cy="1645.6" r="1"/><circle class="cls-9" cx="2500.9" cy="1634.54" r="1"/><circle class="cls-9" cx="2510.44" cy="1641.23" r="1"/><circle class="cls-9" cx="2500.27" cy="1637.78" r="1"/><circle class="cls-9" cx="2504.55" cy="1649.48" r="1"/><circle class="cls-9" cx="2515.56" cy="1628.75" r="1"/><circle class="cls-9" cx="2484.87" cy="1651.54" r="1"/><circle class="cls-9" cx="2505.9" cy="1638.08" r="1"/><circle class="cls-9" cx="2508.45" cy="1638.35" r="1"/><circle class="cls-9" cx="2509.87" cy="1629.93" r="1"/></g></g><path class="cls-5" d="M2180.34,1283.42c-.74-3.24-3.32-4.84-4.86-7.3-2.21-3.54-3.42-1.15-3.12-7.26.11-2.3,1.62-4.81,2-7.18,1.92-11.37-1.85-20.18-11.39-26.33a7.49,7.49,0,0,0-9,1.16l-1.48,1.6a4,4,0,0,0-1,3.85c.86,2.59,3.14,4.15,4,6.21,8.6,20.57.88,11.61,1.06,23.2.07,4.86-1,7.4,2.46,11.53,1.11,1.33,5.47,3,5.95,3.92,1.29,2.49-7.26,10.7-7.45,17a19.57,19.57,0,0,0,2.08,9c4.8,10.71,9.79,17,6.36,29.84-1.22,4.55,5.16,6,6.86,1.89,5.56-13.53,4.56-18.83.88-32.42-2.33-8.64.8-11.24,4.39-17.89C2179.8,1291.07,2181.19,1287.11,2180.34,1283.42Z" transform="translate(357.5 226.56)"/><path class="cls-12" d="M2542,1324.71H2431.67a4.09,4.09,0,1,1,0-8.17H2542a4.09,4.09,0,0,1,0,8.17Z" transform="translate(357.5 226.56)"/><path class="cls-12" d="M2570.54,1301.51H2460.26a4.09,4.09,0,1,1,0-8.17h110.28a4.09,4.09,0,1,1,0,8.17Z" transform="translate(357.5 226.56)"/><path class="cls-12" d="M1842.21,1198.5h-138a5.12,5.12,0,0,1,0-10.23h138a5.12,5.12,0,1,1,0,10.23Z" transform="translate(357.5 226.56)"/><text class="cls-13" transform="translate(2148.73 1777.57)">The <tspan class="cls-14" x="67.37" y="0">p</tspan><tspan class="cls-15" x="87.96" y="0">ag</tspan><tspan x="125.42" y="0">e </tspan><tspan class="cls-16" x="154.01" y="0">y</tspan><tspan x="171.38" y="0">ou a</tspan><tspan class="cls-17" x="240.71" y="0">r</tspan><tspan x="253.7" y="0">e </tspan><tspan class="cls-18" x="282.29" y="0">l</tspan><tspan x="292.68" y="0">ooking </tspan><tspan class="cls-19" x="410.29" y="0">f</tspan><tspan x="421.9" y="0">or does not </tspan><tspan class="cls-14" x="615.51" y="0">e</tspan><tspan x="634.69" y="0">xis</tspan><tspan class="cls-20" x="678.42" y="0">t</tspan><tspan class="cls-21" x="691.44" y="0">.</tspan></text><text class="cls-22" transform="translate(2392.21 1918.63)">GO <tspan class="cls-23" x="45.71" y="0">B</tspan><tspan class="cls-24" x="62.58" y="0">A</tspan><tspan class="cls-25" x="78.72" y="0">CK H</tspan><tspan class="cls-26" x="138.78" y="0">O</tspan><tspan x="157.71" y="0">ME</tspan></text><rect class="cls-27" x="2297.86" y="1844.77" width="375.29" height="127.26" rx="18.67"/><path class="cls-28" d="M1669.57,743.06a67,67,0,1,0-132.68-13.64s-2.13,79.26,5.95,138.39a115.07,115.07,0,0,0,18.79,49.78c1.81,2.62,3.88,4.8,7.35,4.8,8.66,0,8.66-13.63,17.32-13.63s8.66,13.63,17.32,13.63,8.66-13.63,17.33-13.63,8.66,13.63,17.31,13.63,8.67-13.63,17.34-13.63,8.67,13.63,17.34,13.63c3.5,0,5.59-2.22,7.41-4.88a31.12,31.12,0,0,0,3.9-26.51C1676.25,864.32,1663.78,809.83,1669.57,743.06Z" transform="translate(357.5 226.56)"/><g class="cls-7"><g class="cls-29"><circle class="cls-9" cx="1963.51" cy="1127.99" r="1.7"/><circle class="cls-9" cx="1973.14" cy="1088.38" r="1.7"/><circle class="cls-9" cx="2026.47" cy="1097.12" r="1.7"/><circle class="cls-9" cx="2001.6" cy="1084.92" r="1.7"/><circle class="cls-9" cx="1959.24" cy="1071.42" r="1.7"/><circle class="cls-9" cx="2019.98" cy="1086.86" r="1.7"/><circle class="cls-9" cx="1922.39" cy="1125.36" r="1.7"/><circle class="cls-9" cx="1984.42" cy="1118.94" r="1.7"/><circle class="cls-9" cx="1933.66" cy="1134.21" r="1.7"/><circle class="cls-9" cx="1950.42" cy="1139.96" r="1.7"/><circle class="cls-9" cx="2032.94" cy="1112.99" r="1.7"/><circle class="cls-9" cx="2021.16" cy="1130.54" r="1.7"/><circle class="cls-9" cx="2025.37" cy="1088.92" r="1.7"/><circle class="cls-9" cx="1941.67" cy="1135.28" r="1.7"/><circle class="cls-9" cx="1962.63" cy="1116.51" r="1.7"/><circle class="cls-9" cx="1946.35" cy="1088.99" r="1.7"/><circle class="cls-9" cx="1987.76" cy="1101.78" r="1.7"/><circle class="cls-9" cx="2025.84" cy="1113.31" r="1.7"/><circle class="cls-9" cx="2005.25" cy="1128.29" r="1.7"/><circle class="cls-9" cx="2001.13" cy="1116.2" r="1.7"/><circle class="cls-9" cx="1931.16" cy="1123.01" r="1.7"/><circle class="cls-9" cx="2005.76" cy="1136.07" r="1.7"/><circle class="cls-9" cx="2003.46" cy="1099.42" r="1.7"/><circle class="cls-9" cx="2000.16" cy="1095.16" r="1.7"/><circle class="cls-9" cx="1959.4" cy="1136.91" r="1.7"/><circle class="cls-9" cx="1982.13" cy="1128.69" r="1.7"/><circle class="cls-9" cx="2020.59" cy="1052.15" r="1.7"/><circle class="cls-9" cx="1993.55" cy="1125.02" r="1.7"/><circle class="cls-9" cx="1984.41" cy="1133.84" r="1.7"/><circle class="cls-9" cx="2027.31" cy="1148.19" r="1.7"/><circle class="cls-9" cx="2000.77" cy="1058.5" r="1.7"/><circle class="cls-9" cx="2009.4" cy="1120.65" r="1.7"/><circle class="cls-9" cx="2027.37" cy="1080.76" r="1.7"/><circle class="cls-9" cx="1967.54" cy="1079.95" r="1.7"/><circle class="cls-9" cx="1966.59" cy="1123.05" r="1.7"/><circle class="cls-9" cx="2028.31" cy="1093.97" r="1.7"/><circle class="cls-9" cx="1992.29" cy="1137.46" r="1.7"/><circle class="cls-9" cx="1914.55" cy="1135.79" r="1.7"/><circle class="cls-9" cx="1978.66" cy="1109.86" r="1.7"/><circle class="cls-9" cx="2020.84" cy="1036.98" r="1.7"/><circle class="cls-9" cx="2038.88" cy="1124.96" r="1.7"/><circle class="cls-9" cx="1957" cy="1091.68" r="1.7"/><circle class="cls-9" cx="2015.48" cy="1081.53" r="1.7"/><circle class="cls-9" cx="1999.15" cy="1113.42" r="1.7"/><circle class="cls-9" cx="2032.86" cy="1128" r="1.7"/><circle class="cls-9" cx="1925.84" cy="1132.59" r="1.7"/><circle class="cls-9" cx="2002.04" cy="1139.74" r="1.7"/><circle class="cls-9" cx="2011.53" cy="1112.82" r="1.7"/><circle class="cls-9" cx="1953.82" cy="1107.08" r="1.7"/><circle class="cls-9" cx="1974.05" cy="1132.58" r="1.7"/><circle class="cls-9" cx="2017.56" cy="1092.55" r="1.7"/><circle class="cls-9" cx="2015.54" cy="1029.63" r="1.7"/><circle class="cls-9" cx="1988.52" cy="1123.92" r="1.7"/><circle class="cls-9" cx="1944.23" cy="1102.25" r="1.7"/><circle class="cls-9" cx="2039.28" cy="1133.28" r="1.7"/><circle class="cls-9" cx="1994.16" cy="1074.75" r="1.7"/><circle class="cls-9" cx="1997.57" cy="1064.53" r="1.7"/><circle class="cls-9" cx="1949.33" cy="1078.51" r="1.7"/><circle class="cls-9" cx="2024.75" cy="1116.49" r="1.7"/><circle class="cls-9" cx="2008.51" cy="1131.52" r="1.7"/><circle class="cls-9" cx="2037.53" cy="1130.87" r="1.7"/><circle class="cls-9" cx="2022.05" cy="1063.98" r="1.7"/><circle class="cls-9" cx="1910.5" cy="1125.95" r="1.7"/><circle class="cls-9" cx="1954.73" cy="1141.79" r="1.7"/><circle class="cls-9" cx="2030.52" cy="1087.14" r="1.7"/><circle class="cls-9" cx="2022.81" cy="1076.49" r="1.7"/><circle class="cls-9" cx="2012.52" cy="1078.27" r="1.7"/><circle class="cls-9" cx="1991.54" cy="1132.83" r="1.7"/><circle class="cls-9" cx="2014.52" cy="1120.05" r="1.7"/><circle class="cls-9" cx="1940.74" cy="1130.09" r="1.7"/><circle class="cls-9" cx="1986.59" cy="1131.06" r="1.7"/><circle class="cls-9" cx="2009.65" cy="1127.51" r="1.7"/><circle class="cls-9" cx="1996.44" cy="1106.23" r="1.7"/><circle class="cls-9" cx="2000.53" cy="1102.85" r="1.7"/><circle class="cls-9" cx="1995.97" cy="1090.44" r="1.7"/><circle class="cls-9" cx="2000.14" cy="1142.26" r="1.7"/><circle class="cls-9" cx="1989.8" cy="1081.83" r="1.7"/><circle class="cls-9" cx="2027.15" cy="1127.7" r="1.7"/><circle class="cls-9" cx="1984.11" cy="1141.85" r="1.7"/><circle class="cls-9" cx="2007.5" cy="1093.69" r="1.7"/><circle class="cls-9" cx="1987.56" cy="1061.2" r="1.7"/><circle class="cls-9" cx="1974.12" cy="1117.28" r="1.7"/><circle class="cls-9" cx="2003" cy="1122.97" r="1.7"/><circle class="cls-9" cx="1993.32" cy="1116.42" r="1.7"/><circle class="cls-9" cx="1960.96" cy="1124.54" r="1.7"/><circle class="cls-9" cx="1988.48" cy="1140.62" r="1.7"/><circle class="cls-9" cx="1991.47" cy="1145.44" r="1.7"/><circle class="cls-9" cx="1996.81" cy="1024.62" r="1.7"/><circle class="cls-9" cx="2010.93" cy="1022.96" r="1.7"/><circle class="cls-9" cx="1985.67" cy="1117.05" r="1.7"/><circle class="cls-9" cx="2037.1" cy="1112.51" r="1.7"/><circle class="cls-9" cx="2002.8" cy="1111.31" r="1.7"/><circle class="cls-9" cx="2019.9" cy="1140.52" r="1.7"/><circle class="cls-9" cx="1995.72" cy="1119.51" r="1.7"/><circle class="cls-9" cx="2014.28" cy="1105.51" r="1.7"/><circle class="cls-9" cx="1995.25" cy="1137.7" r="1.7"/><circle class="cls-9" cx="2031.99" cy="1142.48" r="1.7"/><circle class="cls-9" cx="2017.36" cy="1065.55" r="1.7"/><circle class="cls-9" cx="1996.59" cy="1141.87" r="1.7"/><circle class="cls-9" cx="1988.29" cy="1070.25" r="1.7"/><circle class="cls-9" cx="2019.17" cy="1004.69" r="1.7"/><circle class="cls-9" cx="2006.82" cy="1097.87" r="1.7"/><circle class="cls-9" cx="1989.08" cy="1111.19" r="1.7"/><circle class="cls-9" cx="1989.52" cy="1095.29" r="1.7"/><circle class="cls-9" cx="1998.44" cy="1124.04" r="1.7"/><circle class="cls-9" cx="2018.8" cy="1060.48" r="1.7"/><circle class="cls-9" cx="2039.23" cy="1137.02" r="1.7"/><circle class="cls-9" cx="2004.25" cy="1108.78" r="1.7"/><circle class="cls-9" cx="1985.01" cy="1104.11" r="1.7"/><circle class="cls-9" cx="1978.86" cy="1126.78" r="1.7"/><circle class="cls-9" cx="1979.56" cy="1120.21" r="1.7"/><circle class="cls-9" cx="1965.85" cy="1094.78" r="1.7"/><circle class="cls-9" cx="1967.3" cy="1131.76" r="1.7"/><circle class="cls-9" cx="2027.37" cy="1110.84" r="1.7"/><circle class="cls-9" cx="1976.46" cy="1068.65" r="1.7"/><circle class="cls-9" cx="2027.46" cy="1131.84" r="1.7"/><circle class="cls-9" cx="2021.48" cy="1143.25" r="1.7"/><circle class="cls-9" cx="1969.25" cy="1102.62" r="1.7"/><circle class="cls-9" cx="2008.81" cy="1095.25" r="1.7"/><circle class="cls-9" cx="2027.35" cy="1142.63" r="1.7"/><circle class="cls-9" cx="1980.09" cy="1110.37" r="1.7"/><circle class="cls-9" cx="2003.64" cy="1135.01" r="1.7"/><circle class="cls-9" cx="2005.92" cy="1064.6" r="1.7"/><circle class="cls-9" cx="1970.67" cy="1075.88" r="1.7"/><circle class="cls-9" cx="2011.42" cy="1086.16" r="1.7"/><circle class="cls-9" cx="2015.71" cy="1044.02" r="1.7"/><circle class="cls-9" cx="2016.25" cy="1128.44" r="1.7"/><circle class="cls-9" cx="1981.58" cy="1092.28" r="1.7"/><circle class="cls-9" cx="2039.96" cy="1118.83" r="1.7"/><circle class="cls-9" cx="1967.58" cy="1139.34" r="1.7"/><circle class="cls-9" cx="2017.14" cy="1075.14" r="1.7"/><circle class="cls-9" cx="2005.77" cy="1079.76" r="1.7"/><circle class="cls-9" cx="2028.79" cy="1122.55" r="1.7"/><circle class="cls-9" cx="1948.62" cy="1123.72" r="1.7"/><circle class="cls-9" cx="2005.2" cy="1105.06" r="1.7"/><circle class="cls-9" cx="1977.77" cy="1130.2" r="1.7"/><circle class="cls-9" cx="1914.17" cy="1119.57" r="1.7"/><circle class="cls-9" cx="2031.43" cy="1093.8" r="1.7"/><circle class="cls-9" cx="1991.27" cy="1120.01" r="1.7"/><circle class="cls-9" cx="2034.08" cy="1118.91" r="1.7"/><circle class="cls-9" cx="2033.58" cy="1124.89" r="1.7"/><circle class="cls-9" cx="1992.43" cy="1107.61" r="1.7"/><circle class="cls-9" cx="2036.36" cy="1141.68" r="1.7"/><circle class="cls-9" cx="2002.74" cy="1052.65" r="1.7"/><circle class="cls-9" cx="2029.47" cy="1125.46" r="1.7"/><circle class="cls-9" cx="1991.5" cy="1100.53" r="1.7"/><circle class="cls-9" cx="2001.2" cy="1071.47" r="1.7"/><circle class="cls-9" cx="1946.95" cy="1128.45" r="1.7"/><circle class="cls-9" cx="2003.04" cy="1040.25" r="1.7"/><circle class="cls-9" cx="1981.08" cy="1046.73" r="1.7"/><circle class="cls-9" cx="2022.39" cy="1109.48" r="1.7"/><circle class="cls-9" cx="2028.57" cy="1074.81" r="1.7"/><circle class="cls-9" cx="1928.32" cy="1098.54" r="1.7"/><circle class="cls-9" cx="1954.19" cy="1144.16" r="1.7"/><circle class="cls-9" cx="2030.14" cy="1115.42" r="1.7"/><circle class="cls-9" cx="1979.08" cy="1084.14" r="1.7"/><circle class="cls-9" cx="2021.64" cy="1119.9" r="1.7"/><circle class="cls-9" cx="1940.43" cy="1111.14" r="1.7"/><circle class="cls-9" cx="1986.07" cy="1137.15" r="1.7"/><circle class="cls-9" cx="1952.9" cy="1127.4" r="1.7"/><circle class="cls-9" cx="1996.48" cy="1128.86" r="1.7"/><circle class="cls-9" cx="2022.3" cy="1045.88" r="1.7"/><circle class="cls-9" cx="2006.48" cy="1060.43" r="1.7"/><circle class="cls-9" cx="1986.07" cy="1053.71" r="1.7"/><circle class="cls-9" cx="2022.95" cy="1041.86" r="1.7"/><circle class="cls-9" cx="2013.74" cy="1060.13" r="1.7"/><circle class="cls-9" cx="1935.21" cy="1130.84" r="1.7"/><circle class="cls-9" cx="2018.7" cy="1141.91" r="1.7"/><circle class="cls-9" cx="1996.03" cy="1101.02" r="1.7"/><circle class="cls-9" cx="2022.98" cy="1146.4" r="1.7"/><circle class="cls-9" cx="1962.9" cy="1130.85" r="1.7"/><circle class="cls-9" cx="2004.29" cy="1124.87" r="1.7"/><circle class="cls-9" cx="2027.81" cy="1068.99" r="1.7"/><circle class="cls-9" cx="1962.5" cy="1104.05" r="1.7"/><circle class="cls-9" cx="1966.41" cy="1143.86" r="1.7"/><circle class="cls-9" cx="2034.2" cy="1104.17" r="1.7"/><circle class="cls-9" cx="2022.96" cy="1030.67" r="1.7"/><circle class="cls-9" cx="2024.87" cy="1130.15" r="1.7"/><circle class="cls-9" cx="1994.99" cy="1050.24" r="1.7"/><circle class="cls-9" cx="2026.96" cy="1061.87" r="1.7"/><circle class="cls-9" cx="2011.11" cy="1096.4" r="1.7"/><circle class="cls-9" cx="1992.67" cy="1149.03" r="1.7"/><circle class="cls-9" cx="1956.37" cy="1143.06" r="1.7"/><circle class="cls-9" cx="1980.1" cy="1131.82" r="1.7"/><circle class="cls-9" cx="2026.7" cy="1119.86" r="1.7"/><circle class="cls-9" cx="2032.59" cy="1106.44" r="1.7"/><circle class="cls-9" cx="2019.56" cy="1106.15" r="1.7"/><circle class="cls-9" cx="2033.05" cy="1144.67" r="1.7"/><circle class="cls-9" cx="2025.43" cy="1148.74" r="1.7"/><circle class="cls-9" cx="2029.14" cy="1146.2" r="1.7"/><circle class="cls-9" cx="1955.59" cy="1098.1" r="1.7"/><circle class="cls-9" cx="2017.52" cy="1131.67" r="1.7"/><circle class="cls-9" cx="2033.93" cy="1096.9" r="1.7"/><circle class="cls-9" cx="1995.68" cy="1146.65" r="1.7"/><circle class="cls-9" cx="1967.16" cy="1119.51" r="1.7"/><circle class="cls-9" cx="2013.54" cy="1101.6" r="1.7"/><circle class="cls-9" cx="1953.95" cy="1131.7" r="1.7"/><circle class="cls-9" cx="2036.48" cy="1129.4" r="1.7"/><circle class="cls-9" cx="2026.75" cy="1055.31" r="1.7"/><circle class="cls-9" cx="2007.03" cy="1074.71" r="1.7"/><circle class="cls-9" cx="2030.76" cy="1137.64" r="1.7"/><circle class="cls-9" cx="2022.38" cy="1137.51" r="1.7"/><circle class="cls-9" cx="1997.43" cy="1132.65" r="1.7"/><circle class="cls-9" cx="2008.52" cy="1107.2" r="1.7"/><circle class="cls-9" cx="1942.58" cy="1122.81" r="1.7"/><circle class="cls-9" cx="1998.39" cy="1147.27" r="1.7"/><circle class="cls-9" cx="1975.71" cy="1123.43" r="1.7"/><circle class="cls-9" cx="2036.85" cy="1133.53" r="1.7"/><circle class="cls-9" cx="1933.19" cy="1119.76" r="1.7"/><circle class="cls-9" cx="1971.81" cy="1129.14" r="1.7"/><circle class="cls-9" cx="1998.48" cy="1079.62" r="1.7"/><circle class="cls-9" cx="2010.13" cy="1055.18" r="1.7"/><circle class="cls-9" cx="1981.6" cy="1135.06" r="1.7"/><circle class="cls-9" cx="2032.95" cy="1109.51" r="1.7"/><circle class="cls-9" cx="1971.66" cy="1110.95" r="1.7"/><circle class="cls-9" cx="1948.33" cy="1108.09" r="1.7"/><circle class="cls-9" cx="2027.15" cy="1106.29" r="1.7"/><circle class="cls-9" cx="1973.2" cy="1121.13" r="1.7"/><circle class="cls-9" cx="2007.99" cy="1124.84" r="1.7"/><circle class="cls-9" cx="2007.54" cy="1112.33" r="1.7"/><circle class="cls-9" cx="1944.19" cy="1117.91" r="1.7"/><circle class="cls-9" cx="1991.73" cy="1104.12" r="1.7"/><circle class="cls-9" cx="1983.51" cy="1138.81" r="1.7"/><circle class="cls-9" cx="1958.14" cy="1084.39" r="1.7"/><circle class="cls-9" cx="1977.33" cy="1105.85" r="1.7"/><circle class="cls-9" cx="1989.32" cy="1138.11" r="1.7"/><circle class="cls-9" cx="1932.45" cy="1140.68" r="1.7"/><circle class="cls-9" cx="2027.44" cy="1134.79" r="1.7"/><circle class="cls-9" cx="2012.05" cy="1122.68" r="1.7"/><circle class="cls-9" cx="2015.74" cy="1098.89" r="1.7"/><circle class="cls-9" cx="1953" cy="1116.33" r="1.7"/><circle class="cls-9" cx="1932.08" cy="1109.8" r="1.7"/><circle class="cls-9" cx="2026.9" cy="1137.21" r="1.7"/><circle class="cls-9" cx="1962.8" cy="1089.75" r="1.7"/><circle class="cls-9" cx="2014.68" cy="1071.1" r="1.7"/><circle class="cls-9" cx="2009.74" cy="1069.89" r="1.7"/><circle class="cls-9" cx="1986.1" cy="1057.99" r="1.7"/><circle class="cls-9" cx="1960.95" cy="1133.81" r="1.7"/><circle class="cls-9" cx="2022.31" cy="1104.73" r="1.7"/><circle class="cls-9" cx="2018.93" cy="1079.87" r="1.7"/><circle class="cls-9" cx="2030.49" cy="1082.79" r="1.7"/><circle class="cls-9" cx="1917.97" cy="1142.28" r="1.7"/><circle class="cls-9" cx="2031.29" cy="1148.54" r="1.7"/><circle class="cls-9" cx="1971.14" cy="1135.73" r="1.7"/><circle class="cls-9" cx="1963.16" cy="1111.3" r="1.7"/><circle class="cls-9" cx="1970.33" cy="1120.84" r="1.7"/><circle class="cls-9" cx="2029.53" cy="1100.59" r="1.7"/><circle class="cls-9" cx="2031.72" cy="1133.85" r="1.7"/><circle class="cls-9" cx="1923.26" cy="1113.6" r="1.7"/><circle class="cls-9" cx="2034.01" cy="1136.55" r="1.7"/><circle class="cls-9" cx="2009.23" cy="1103.16" r="1.7"/><circle class="cls-9" cx="1972.9" cy="1098.72" r="1.7"/><circle class="cls-9" cx="2010.6" cy="1135.81" r="1.7"/><circle class="cls-9" cx="1968.62" cy="1108.77" r="1.7"/><circle class="cls-9" cx="1986.48" cy="1087.75" r="1.7"/><circle class="cls-9" cx="1956.3" cy="1077.16" r="1.7"/><circle class="cls-9" cx="2018.53" cy="1101.95" r="1.7"/><circle class="cls-9" cx="2006.43" cy="1118.36" r="1.7"/><circle class="cls-9" cx="2000.39" cy="1133.66" r="1.7"/><circle class="cls-9" cx="2018.3" cy="1136.93" r="1.7"/><circle class="cls-9" cx="2008.5" cy="1047.69" r="1.7"/><circle class="cls-9" cx="1929.08" cy="1137.59" r="1.7"/><circle class="cls-9" cx="1927.25" cy="1142.74" r="1.7"/><circle class="cls-9" cx="2007.05" cy="1088.01" r="1.7"/><circle class="cls-9" cx="1977.14" cy="1077.65" r="1.7"/><circle class="cls-9" cx="1971.66" cy="1054.07" r="1.7"/><circle class="cls-9" cx="2017.19" cy="1118.11" r="1.7"/><circle class="cls-9" cx="2016.67" cy="1112.3" r="1.7"/><circle class="cls-9" cx="2018.63" cy="1124.35" r="1.7"/><circle class="cls-9" cx="1980.95" cy="1099.52" r="1.7"/><circle class="cls-9" cx="2013.93" cy="1091.93" r="1.7"/><circle class="cls-9" cx="2020.56" cy="1093.05" r="1.7"/><circle class="cls-9" cx="2014.27" cy="1136.46" r="1.7"/><circle class="cls-9" cx="2036.59" cy="1120.85" r="1.7"/><circle class="cls-9" cx="2002.21" cy="1142.24" r="1.7"/><circle class="cls-9" cx="2021.21" cy="1097.91" r="1.7"/><circle class="cls-9" cx="2020.43" cy="1083.11" r="1.7"/><circle class="cls-9" cx="2030.36" cy="1102.82" r="1.7"/><circle class="cls-9" cx="2024.33" cy="1099.64" r="1.7"/><circle class="cls-9" cx="2031.18" cy="1121.66" r="1.7"/><circle class="cls-9" cx="2032.59" cy="1099.82" r="1.7"/><circle class="cls-9" cx="1922.59" cy="1144.29" r="1.7"/></g></g><circle class="cls-30" cx="1917.12" cy="972.33" r="4.52"/><circle class="cls-30" cx="1985.32" cy="972.33" r="4.52"/><path class="cls-31" d="M1607.26,761.93c-3.5,2.65-9.2,2-13.55,2.32-4.34-.36-10,.33-13.54-2.32-3.76-2.46,1.1-13.38,13.54-13.55C1606.16,748.55,1611,759.47,1607.26,761.93Z" transform="translate(357.5 226.56)"/><path class="cls-32" d="M1588.64,754.34a5.07,5.07,0,0,0,5.07-5.07v-.89a17.25,17.25,0,0,0-9.7,2.94A5.06,5.06,0,0,0,1588.64,754.34Z" transform="translate(357.5 226.56)"/><path class="cls-32" d="M1593.71,749.27a5.07,5.07,0,0,0,9.71,2.05,17.26,17.26,0,0,0-9.71-2.94Z" transform="translate(357.5 226.56)"/><path class="cls-30" d="M1559.78,755.87c-2.8,0-5.46,0-7.6-2.14s-2.43-5.25-1.86-8.05a.46.46,0,0,0-.83-.35,8,8,0,0,0,1.25,9.41c2.2,2.37,6.33,3.69,9.23,1.85A.39.39,0,0,0,1559.78,755.87Z" transform="translate(357.5 226.56)"/><path class="cls-30" d="M1548.87,757.93a3.24,3.24,0,0,1-2.09-3.1.54.54,0,0,0-1.07,0,3.46,3.46,0,0,0,3.1,3.59C1549.11,758.46,1549.11,758,1548.87,757.93Z" transform="translate(357.5 226.56)"/><path class="cls-30" d="M1636.67,747.17a8.47,8.47,0,0,1-12.71,7.35c-.83-.45-1.57.81-.74,1.27a9.66,9.66,0,0,0,14.57-8.62A.56.56,0,0,0,1636.67,747.17Z" transform="translate(357.5 226.56)"/><path class="cls-30" d="M1636.72,757.42c-2.57,2.25-6.22,3.43-9.22,1.22-.31-.23-.72.29-.42.54,2.94,2.42,8.36,2.48,10.1-1.4A.3.3,0,0,0,1636.72,757.42Z" transform="translate(357.5 226.56)"/><path class="cls-30" d="M1597.45,769a12.81,12.81,0,0,0-4-.19c-1.53,0-3.06.07-4.59.1a.4.4,0,0,0,0,.8l4.59.09a12.82,12.82,0,0,0,4-.18A.32.32,0,0,0,1597.45,769Z" transform="translate(357.5 226.56)"/><path class="cls-30" d="M1631.21,722.35a7.66,7.66,0,0,0-4.32,3c-1.52,1.92-3.13,5.85-6.2,4.82-2.09-.69-3,2.57-.91,3.29,2.82,1,5.53-.38,7.42-2.51,1.22-1.38,2-3.3,3.48-4.44s2.85-.57,4.4.28a1.06,1.06,0,0,0,1.53-.63C1637.67,723,1633.62,721.82,1631.21,722.35Z" transform="translate(357.5 226.56)"/><path class="cls-30" d="M1568.78,729.68c-.66,4.55-5.6-.8-6.7-1.85a9.7,9.7,0,0,0-4.26-2.52c-2.67-.67-6.45-.21-7.3,2.78a.91.91,0,0,0,.86,1.13,13.39,13.39,0,0,0,3.31-.49c2.53-.35,4,.57,5.79,2.13,1.39,1.2,2.73,2.66,4.58,3.13,2.77.71,6.29-.81,6.15-4C1571.15,728.69,1569,728.23,1568.78,729.68Z" transform="translate(357.5 226.56)"/><path class="cls-33" d="M2869.91,619.26c-16.68.71-33.29,1.86-49.78,3.62-5.68.61-11.58,1.38-16.37,4.5s-8.1,9.27-6.14,14.63c2.14,5.82,9.16,8.16,15.35,8.44,13.07.6,25.78-4.45,38.85-4.9,17.21-.6,37.25,12,22.13,25.5-9.52,8.5-33.88,5-45.57,4.66l-247.07-6.07c-25.4-.62-134.83-16.74-110.82,41.63,4.75,11.54,15.88,19.49,27.74,23.38s24.53,4.28,37,4.65l115.51,3.37v9.09c-12.85-1-38,1.25-39.68,18.41-1.1,11.59,8.24,22.12,19.09,26.35s22.9,3.63,34.53,3a2667.85,2667.85,0,0,1,315.52,2.72V619.05C2943.4,618.23,2906.47,617.69,2869.91,619.26Z" transform="translate(357.5 226.56)"/><path class="cls-33" d="M1881.83,1941.47c-14.25-8.52-31.75-9-48.35-9.16l-202.91-2.42c-36.85-.44-33.36-28.22.78-33,15.69-2.2,56.65,1.83,48-27.27-5.05-17.07-27.71-19.82-45.51-19.28l-257.23,7.81c-22.23.67-47.18,2.58-61.75,19.38-6,7-9.61,16.62-7.27,25.52,6,22.69,25.55,14.86,42.23,18.5,7.38,1.61,14.47,7,15.66,14.47,1.12,7.06-3.17,13.87-8.23,18.91-20.48,20.46-52,22.11-81.48,20.81v98.11q110.65,6.59,221.46,10.31c15.51.52,31.13,1,46.46-1.42,15.68-2.47,34.34-13.75,30.44-29.13-3.11-12.26-18-16.23-29.4-21.66s-21.27-21.85-11.12-29.39l319.81-3.32c16-.16,34.74-1.83,43-15.46C1905.16,1969.59,1896.09,1950,1881.83,1941.47Z" transform="translate(357.5 226.56)"/><line class="cls-34" x1="2075.88" y1="1469.79" x2="2123.04" y2="1469.79"/><line class="cls-34" x1="2075.88" y1="1478.03" x2="2128.56" y2="1478.03"/><line class="cls-34" x1="2075.88" y1="1486.28" x2="2112.81" y2="1486.28"/><path class="cls-35" d="M1275.8,726.73h124.42s47.72-12.94,47.72,39.89v435.54s-11.93,49.31,23.87,49.31h255.66" transform="translate(357.5 226.56)"/><line class="cls-34" x1="2943.9" y1="1526.46" x2="3005.86" y2="1526.46"/><line class="cls-34" x1="2947.98" y1="1535.1" x2="3005.86" y2="1535.1"/><line class="cls-34" x1="2936.05" y1="1543.75" x2="2993.93" y2="1543.75"/><path class="cls-35" d="M2605.66,1308.54h91.61s48.26,2.24,48.26,67.57v656.75s-2.24,51.13,52.3,51.13h122.72" transform="translate(357.5 226.56)"/><line class="cls-36" x1="3293.39" y1="2293.64" x2="3327.48" y2="2293.64"/><line class="cls-36" x1="3293.39" y1="2326.02" x2="3327.48" y2="2326.02"/><path class="cls-37" d="M2875.21,2039.15h51a9.74,9.74,0,0,1,9.74,9.74V2130a0,0,0,0,1,0,0h-70.46a0,0,0,0,1,0,0V2048.9A9.74,9.74,0,0,1,2875.21,2039.15Z" transform="translate(1173.63 5211.82) rotate(-90)"/><path class="cls-38" d="M1275.8,1041H2480.94s49.3,6.82,49.3-29V563.8" transform="translate(357.5 226.56)"/><path class="cls-38" d="M1272.39,1489.29h334.06s36.57-1.71,36.57,40.9v748.24" transform="translate(357.5 226.56)"/><path class="cls-39" d="M1269,1951.18h801.88s33.36,11.36,33.36,61.36v265.89" transform="translate(357.5 226.56)"/><path class="cls-39" d="M2504.69,2275c1.69,0,0-626.09,0-626.09s6.38-42.16,69.94-42.16H2987" transform="translate(357.5 226.56)"/><path class="cls-39" d="M2076.41,563.8V810.12s3.39,46.62,59.87,46.62H2987" transform="translate(357.5 226.56)"/><path class="cls-28" d="M2545.3,1883.36c-1.3-12.51-3.51-25.12-8.68-36.63-.42-1.57-.83-3.14-1.32-4.68-4.3-13.7-13-26.07-27.89-32-12.76-5.14-27.68-5.2-40.95-1.64-32.62,8.74-49.36,38-54.35,66.36-6.81,38.85,4.78,78.12.57,117.17-1.17,10.87-5.23,22.08-5.06,33,.1,6.27,2.2,12.65,8.59,15.9,20.07,10.19,14.69-12.57,23.91-14.15,4.09-.7,4.35,5.09,4.76,8.81.5,4.48,4.53,8.45,9.44,9.31s10.31-1.46,12.64-5.44c1.4-2.39,1.78-5.26,3.58-7.43s6.11-3,7.55-.63c-2.89,5.07-.26,12.06,5.46,14.5s13.42-.13,16-5.33c1-2.11,1.3-4.5,2.63-6.47s4.43-3.33,6.45-1.92c-1.13,5.63-1.54,12.78,4,15.66,5.82,3,13.08-1.61,16.5-6.83,14.58-22.21,15.08-56,17.07-81A418,418,0,0,0,2545.3,1883.36Z" transform="translate(357.5 226.56)"/><g class="cls-40"><circle class="cls-12" cx="2888.82" cy="2253.56" r="1.7"/><circle class="cls-12" cx="2805.46" cy="2219.28" r="1.7"/><circle class="cls-12" cx="2837.36" cy="2219.77" r="1.7"/><circle class="cls-12" cx="2849.55" cy="2204.33" r="1.7"/><circle class="cls-12" cx="2885.14" cy="2267.5" r="1.7"/><circle class="cls-12" cx="2897.35" cy="2176.57" r="1.7"/><circle class="cls-12" cx="2843.97" cy="2267.69" r="1.7"/><circle class="cls-12" cx="2896.24" cy="2205.88" r="1.7"/><circle class="cls-12" cx="2891.04" cy="2259.01" r="1.7"/><circle class="cls-12" cx="2797.18" cy="2226.32" r="1.7"/><circle class="cls-12" cx="2834.83" cy="2261.86" r="1.7"/><circle class="cls-12" cx="2875.67" cy="2220.1" r="1.7"/><circle class="cls-12" cx="2776.84" cy="2265.76" r="1.7"/><circle class="cls-12" cx="2848.22" cy="2246.57" r="1.7"/><circle class="cls-12" cx="2895.41" cy="2155.24" r="1.7"/><circle class="cls-12" cx="2854.6" cy="2267.71" r="1.7"/><circle class="cls-12" cx="2873.75" cy="2256.03" r="1.7"/><circle class="cls-12" cx="2877.61" cy="2171.09" r="1.7"/><circle class="cls-12" cx="2787.78" cy="2260" r="1.7"/><circle class="cls-12" cx="2840.92" cy="2228.81" r="1.7"/><circle class="cls-12" cx="2875.97" cy="2258.99" r="1.7"/><circle class="cls-12" cx="2891.22" cy="2192.23" r="1.7"/><circle class="cls-12" cx="2812.18" cy="2267.67" r="1.7"/><circle class="cls-12" cx="2781.91" cy="2234.62" r="1.7"/><circle class="cls-12" cx="2827" cy="2262.23" r="1.7"/><circle class="cls-12" cx="2893.73" cy="2236.44" r="1.7"/><circle class="cls-12" cx="2835.36" cy="2234.73" r="1.7"/><circle class="cls-12" cx="2876.01" cy="2209.69" r="1.7"/><circle class="cls-12" cx="2819.87" cy="2212.26" r="1.7"/><circle class="cls-12" cx="2889.31" cy="2241.37" r="1.7"/><circle class="cls-12" cx="2888.8" cy="2245.09" r="1.7"/><circle class="cls-12" cx="2880.75" cy="2265.11" r="1.7"/><circle class="cls-12" cx="2838.42" cy="2251.08" r="1.7"/><circle class="cls-12" cx="2902.35" cy="2186.17" r="1.7"/><circle class="cls-12" cx="2883.19" cy="2228.79" r="1.7"/><circle class="cls-12" cx="2814.11" cy="2232.41" r="1.7"/><circle class="cls-12" cx="2880.61" cy="2216.5" r="1.7"/><circle class="cls-12" cx="2885.58" cy="2205.14" r="1.7"/><circle class="cls-12" cx="2887.59" cy="2194.78" r="1.7"/><circle class="cls-12" cx="2873.43" cy="2249.6" r="1.7"/><circle class="cls-12" cx="2874.38" cy="2240.68" r="1.7"/><circle class="cls-12" cx="2809.8" cy="2226.82" r="1.7"/><circle class="cls-12" cx="2828.19" cy="2253.45" r="1.7"/><circle class="cls-12" cx="2822.76" cy="2241.44" r="1.7"/><circle class="cls-12" cx="2864.14" cy="2206.91" r="1.7"/><circle class="cls-12" cx="2868.17" cy="2252.06" r="1.7"/><circle class="cls-12" cx="2829.84" cy="2237.79" r="1.7"/><circle class="cls-12" cx="2806.94" cy="2268.45" r="1.7"/><circle class="cls-12" cx="2847.72" cy="2256.73" r="1.7"/><circle class="cls-12" cx="2853.99" cy="2230.49" r="1.7"/><circle class="cls-12" cx="2865.09" cy="2265.73" r="1.7"/><circle class="cls-12" cx="2885.88" cy="2240.73" r="1.7"/><circle class="cls-12" cx="2865.32" cy="2242.94" r="1.7"/><circle class="cls-12" cx="2838.46" cy="2243.62" r="1.7"/><circle class="cls-12" cx="2874.22" cy="2262.99" r="1.7"/><circle class="cls-12" cx="2846.54" cy="2199.78" r="1.7"/><circle class="cls-12" cx="2841.95" cy="2237.42" r="1.7"/><circle class="cls-12" cx="2843.08" cy="2192.46" r="1.7"/><circle class="cls-12" cx="2876.99" cy="2250.33" r="1.7"/><circle class="cls-12" cx="2876.81" cy="2266.73" r="1.7"/><circle class="cls-12" cx="2848.15" cy="2268.36" r="1.7"/><circle class="cls-12" cx="2873.81" cy="2234.75" r="1.7"/><circle class="cls-12" cx="2833.61" cy="2221.55" r="1.7"/><circle class="cls-12" cx="2860.3" cy="2237.77" r="1.7"/><circle class="cls-12" cx="2864.12" cy="2192.39" r="1.7"/><circle class="cls-12" cx="2890.18" cy="2249.74" r="1.7"/><circle class="cls-12" cx="2847.84" cy="2260.61" r="1.7"/><circle class="cls-12" cx="2822.6" cy="2235.14" r="1.7"/><circle class="cls-12" cx="2844.23" cy="2262.49" r="1.7"/><circle class="cls-12" cx="2807.4" cy="2262.23" r="1.7"/><circle class="cls-12" cx="2838.25" cy="2258.47" r="1.7"/><circle class="cls-12" cx="2859.46" cy="2219.95" r="1.7"/><circle class="cls-12" cx="2900.14" cy="2225.75" r="1.7"/><circle class="cls-12" cx="2869.87" cy="2176.54" r="1.7"/><circle class="cls-12" cx="2870.44" cy="2264.03" r="1.7"/><circle class="cls-12" cx="2876.17" cy="2238.57" r="1.7"/><circle class="cls-12" cx="2784.35" cy="2250.02" r="1.7"/><circle class="cls-12" cx="2893.13" cy="2253.56" r="1.7"/><circle class="cls-12" cx="2866.02" cy="2234.98" r="1.7"/><circle class="cls-12" cx="2781.48" cy="2220.2" r="1.7"/><circle class="cls-12" cx="2859.27" cy="2242.31" r="1.7"/><circle class="cls-12" cx="2887.39" cy="2259.24" r="1.7"/><circle class="cls-12" cx="2841.61" cy="2214.28" r="1.7"/><circle class="cls-12" cx="2857.58" cy="2259.79" r="1.7"/><circle class="cls-12" cx="2857.68" cy="2263.91" r="1.7"/><circle class="cls-12" cx="2894.05" cy="2224.18" r="1.7"/><circle class="cls-12" cx="2885.24" cy="2233.1" r="1.7"/><circle class="cls-12" cx="2890.55" cy="2233.81" r="1.7"/><circle class="cls-12" cx="2846.19" cy="2272.87" r="1.7"/><circle class="cls-12" cx="2788.84" cy="2239.47" r="1.7"/><circle class="cls-12" cx="2810.25" cy="2246.99" r="1.7"/><circle class="cls-12" cx="2856.24" cy="2223.27" r="1.7"/><circle class="cls-12" cx="2781.6" cy="2247.15" r="1.7"/><circle class="cls-12" cx="2852.09" cy="2260.77" r="1.7"/><circle class="cls-12" cx="2867.71" cy="2226.24" r="1.7"/><circle class="cls-12" cx="2869.25" cy="2267.83" r="1.7"/><circle class="cls-12" cx="2882.97" cy="2244.16" r="1.7"/><circle class="cls-12" cx="2851.94" cy="2265.27" r="1.7"/><circle class="cls-12" cx="2876.96" cy="2161.52" r="1.7"/><circle class="cls-12" cx="2830.92" cy="2249.24" r="1.7"/><circle class="cls-12" cx="2900.1" cy="2182.64" r="1.7"/><circle class="cls-12" cx="2902.42" cy="2172.23" r="1.7"/><circle class="cls-12" cx="2866.98" cy="2247.55" r="1.7"/><circle class="cls-12" cx="2824.81" cy="2251.09" r="1.7"/><circle class="cls-12" cx="2888.68" cy="2228.07" r="1.7"/><circle class="cls-12" cx="2792.68" cy="2252.37" r="1.7"/><circle class="cls-12" cx="2885.37" cy="2224.24" r="1.7"/><circle class="cls-12" cx="2815.73" cy="2244.48" r="1.7"/><circle class="cls-12" cx="2776.01" cy="2246.28" r="1.7"/><circle class="cls-12" cx="2890.95" cy="2202.74" r="1.7"/><circle class="cls-12" cx="2855.51" cy="2185.87" r="1.7"/><circle class="cls-12" cx="2848.76" cy="2252.52" r="1.7"/><circle class="cls-12" cx="2816.73" cy="2249.57" r="1.7"/><circle class="cls-12" cx="2787.6" cy="2229.78" r="1.7"/><circle class="cls-12" cx="2804.74" cy="2211.93" r="1.7"/><circle class="cls-12" cx="2850.1" cy="2232.4" r="1.7"/><circle class="cls-12" cx="2770.97" cy="2244.38" r="1.7"/><circle class="cls-12" cx="2880.68" cy="2191.77" r="1.7"/><circle class="cls-12" cx="2851.54" cy="2218.29" r="1.7"/><circle class="cls-12" cx="2841.73" cy="2246.88" r="1.7"/><circle class="cls-12" cx="2882.28" cy="2248.34" r="1.7"/><circle class="cls-12" cx="2871.24" cy="2191.91" r="1.7"/><circle class="cls-12" cx="2784.12" cy="2259.62" r="1.7"/><circle class="cls-12" cx="2794.74" cy="2211.57" r="1.7"/><circle class="cls-12" cx="2885.93" cy="2219.1" r="1.7"/><circle class="cls-12" cx="2819.3" cy="2224.1" r="1.7"/><circle class="cls-12" cx="2856.89" cy="2232.18" r="1.7"/><circle class="cls-12" cx="2863.88" cy="2215.07" r="1.7"/><circle class="cls-12" cx="2895.55" cy="2196.96" r="1.7"/><circle class="cls-12" cx="2901.28" cy="2197.51" r="1.7"/><circle class="cls-12" cx="2819.46" cy="2266.14" r="1.7"/><circle class="cls-12" cx="2813.72" cy="2220.5" r="1.7"/><circle class="cls-12" cx="2868.75" cy="2260.12" r="1.7"/><circle class="cls-12" cx="2842.39" cy="2256.73" r="1.7"/><circle class="cls-12" cx="2808.02" cy="2251.56" r="1.7"/><circle class="cls-12" cx="2773.12" cy="2229.3" r="1.7"/><circle class="cls-12" cx="2875.35" cy="2274.67" r="1.7"/><circle class="cls-12" cx="2901.11" cy="2163.74" r="1.7"/><circle class="cls-12" cx="2880" cy="2254.81" r="1.7"/><circle class="cls-12" cx="2864.38" cy="2201.38" r="1.7"/><circle class="cls-12" cx="2826.6" cy="2220.16" r="1.7"/><circle class="cls-12" cx="2812.27" cy="2272.07" r="1.7"/><circle class="cls-12" cx="2872.68" cy="2271.24" r="1.7"/><circle class="cls-12" cx="2897.9" cy="2230.5" r="1.7"/><circle class="cls-12" cx="2861.2" cy="2228.42" r="1.7"/><circle class="cls-12" cx="2869.42" cy="2213.29" r="1.7"/><circle class="cls-12" cx="2880.6" cy="2223.38" r="1.7"/><circle class="cls-12" cx="2881.6" cy="2235.4" r="1.7"/><circle class="cls-12" cx="2883.21" cy="2261.07" r="1.7"/><circle class="cls-12" cx="2897.24" cy="2218.47" r="1.7"/><circle class="cls-12" cx="2846.37" cy="2210.52" r="1.7"/><circle class="cls-12" cx="2899.54" cy="2192.69" r="1.7"/><circle class="cls-12" cx="2859.55" cy="2196.72" r="1.7"/><circle class="cls-12" cx="2885.3" cy="2213.36" r="1.7"/><circle class="cls-12" cx="2871.27" cy="2254.83" r="1.7"/><circle class="cls-12" cx="2887.82" cy="2264.23" r="1.7"/><circle class="cls-12" cx="2871.36" cy="2198.38" r="1.7"/><circle class="cls-12" cx="2863.46" cy="2245.87" r="1.7"/><circle class="cls-12" cx="2836.13" cy="2210" r="1.7"/><circle class="cls-12" cx="2897.6" cy="2238.55" r="1.7"/><circle class="cls-12" cx="2843.67" cy="2250.69" r="1.7"/><circle class="cls-12" cx="2859.12" cy="2213.14" r="1.7"/><circle class="cls-12" cx="2875.24" cy="2246.98" r="1.7"/><circle class="cls-12" cx="2853.37" cy="2211.57" r="1.7"/><circle class="cls-12" cx="2865.56" cy="2219.48" r="1.7"/><circle class="cls-12" cx="2893.58" cy="2185.5" r="1.7"/><circle class="cls-12" cx="2895.96" cy="2201.35" r="1.7"/><circle class="cls-12" cx="2897.85" cy="2222.93" r="1.7"/><circle class="cls-12" cx="2814.43" cy="2202.61" r="1.7"/><circle class="cls-12" cx="2865.73" cy="2256.52" r="1.7"/><circle class="cls-12" cx="2891.67" cy="2213.13" r="1.7"/><circle class="cls-12" cx="2828.37" cy="2228.66" r="1.7"/><circle class="cls-12" cx="2860.13" cy="2255.5" r="1.7"/><circle class="cls-12" cx="2860.31" cy="2179.86" r="1.7"/><circle class="cls-12" cx="2853.06" cy="2271.13" r="1.7"/><circle class="cls-12" cx="2840.2" cy="2265.64" r="1.7"/><circle class="cls-12" cx="2871.38" cy="2216.57" r="1.7"/><circle class="cls-12" cx="2800.29" cy="2233.03" r="1.7"/><circle class="cls-12" cx="2855.12" cy="2248.49" r="1.7"/><circle class="cls-12" cx="2827.54" cy="2212.67" r="1.7"/><circle class="cls-12" cx="2855.58" cy="2253.16" r="1.7"/><circle class="cls-12" cx="2887.94" cy="2181.42" r="1.7"/><circle class="cls-12" cx="2844.64" cy="2230.12" r="1.7"/><circle class="cls-12" cx="2884.38" cy="2253" r="1.7"/><circle class="cls-12" cx="2843.33" cy="2219.69" r="1.7"/><circle class="cls-12" cx="2874.88" cy="2182.51" r="1.7"/><circle class="cls-12" cx="2876.71" cy="2227.36" r="1.7"/><circle class="cls-12" cx="2866.44" cy="2239.58" r="1.7"/><circle class="cls-12" cx="2824.77" cy="2206.24" r="1.7"/><circle class="cls-12" cx="2851.91" cy="2226.4" r="1.7"/><circle class="cls-12" cx="2849.55" cy="2239.39" r="1.7"/><circle class="cls-12" cx="2838.88" cy="2184.94" r="1.7"/><circle class="cls-12" cx="2857.96" cy="2234.64" r="1.7"/><circle class="cls-12" cx="2795.56" cy="2238.32" r="1.7"/><circle class="cls-12" cx="2871.61" cy="2274.68" r="1.7"/><circle class="cls-12" cx="2862.28" cy="2249.19" r="1.7"/><circle class="cls-12" cx="2802.56" cy="2252.47" r="1.7"/><circle class="cls-12" cx="2874.27" cy="2267.86" r="1.7"/><circle class="cls-12" cx="2868.63" cy="2272.53" r="1.7"/><circle class="cls-12" cx="2821.37" cy="2255.1" r="1.7"/><circle class="cls-12" cx="2844.87" cy="2242.71" r="1.7"/><circle class="cls-12" cx="2820.12" cy="2229.26" r="1.7"/><circle class="cls-12" cx="2828.58" cy="2243.93" r="1.7"/><circle class="cls-12" cx="2900.09" cy="2213.8" r="1.7"/><circle class="cls-12" cx="2841.17" cy="2205.23" r="1.7"/><circle class="cls-12" cx="2836.95" cy="2255.14" r="1.7"/><circle class="cls-12" cx="2891.69" cy="2208.24" r="1.7"/><circle class="cls-12" cx="2871.74" cy="2228.13" r="1.7"/><circle class="cls-12" cx="2812.26" cy="2262.46" r="1.7"/><circle class="cls-12" cx="2837.94" cy="2263.34" r="1.7"/><circle class="cls-12" cx="2811.51" cy="2237.98" r="1.7"/><circle class="cls-12" cx="2840.6" cy="2270.28" r="1.7"/><circle class="cls-12" cx="2881.53" cy="2271.98" r="1.7"/><circle class="cls-12" cx="2827.85" cy="2197.63" r="1.7"/><circle class="cls-12" cx="2813.2" cy="2254.42" r="1.7"/><circle class="cls-12" cx="2858.69" cy="2205.99" r="1.7"/><circle class="cls-12" cx="2889.36" cy="2237.17" r="1.7"/><circle class="cls-12" cx="2869.84" cy="2208.04" r="1.7"/><circle class="cls-12" cx="2862.53" cy="2231.76" r="1.7"/><circle class="cls-12" cx="2883.52" cy="2208.99" r="1.7"/><circle class="cls-12" cx="2828.44" cy="2257.09" r="1.7"/><circle class="cls-12" cx="2815.81" cy="2268.84" r="1.7"/><circle class="cls-12" cx="2870.39" cy="2242.56" r="1.7"/><circle class="cls-12" cx="2858.46" cy="2251.02" r="1.7"/><circle class="cls-12" cx="2876.26" cy="2253.55" r="1.7"/><circle class="cls-12" cx="2898.07" cy="2233.7" r="1.7"/><circle class="cls-12" cx="2817.05" cy="2238.85" r="1.7"/><circle class="cls-12" cx="2808.65" cy="2241.25" r="1.7"/><circle class="cls-12" cx="2835.58" cy="2247.65" r="1.7"/><circle class="cls-12" cx="2891.45" cy="2220.1" r="1.7"/><circle class="cls-12" cx="2883.74" cy="2257.16" r="1.7"/><circle class="cls-12" cx="2874.98" cy="2243.29" r="1.7"/><circle class="cls-12" cx="2834.03" cy="2241.01" r="1.7"/><circle class="cls-12" cx="2894.36" cy="2240.72" r="1.7"/><circle class="cls-12" cx="2893.05" cy="2247.75" r="1.7"/><circle class="cls-12" cx="2786.74" cy="2267.68" r="1.7"/><circle class="cls-12" cx="2854.02" cy="2241.76" r="1.7"/><circle class="cls-12" cx="2883.07" cy="2185.49" r="1.7"/><circle class="cls-12" cx="2854.51" cy="2201.74" r="1.7"/><circle class="cls-12" cx="2846.04" cy="2236.52" r="1.7"/><circle class="cls-12" cx="2813.66" cy="2257.99" r="1.7"/><circle class="cls-12" cx="2877.46" cy="2271.8" r="1.7"/><circle class="cls-12" cx="2895.57" cy="2244.95" r="1.7"/><circle class="cls-12" cx="2837.65" cy="2268.16" r="1.7"/><circle class="cls-12" cx="2821.88" cy="2245.18" r="1.7"/><circle class="cls-12" cx="2881.58" cy="2241.01" r="1.7"/><circle class="cls-12" cx="2893.02" cy="2230.46" r="1.7"/><circle class="cls-12" cx="2767.68" cy="2255.93" r="1.7"/><circle class="cls-12" cx="2801.53" cy="2238.77" r="1.7"/><circle class="cls-12" cx="2791.32" cy="2245.62" r="1.7"/><circle class="cls-12" cx="2803.42" cy="2245.18" r="1.7"/><circle class="cls-12" cx="2848.61" cy="2194.05" r="1.7"/><circle class="cls-12" cx="2807.55" cy="2255.84" r="1.7"/><circle class="cls-12" cx="2901.11" cy="2206.46" r="1.7"/><circle class="cls-12" cx="2818.41" cy="2258.9" r="1.7"/><circle class="cls-12" cx="2780.67" cy="2269.64" r="1.7"/><circle class="cls-12" cx="2799.51" cy="2250.46" r="1.7"/><circle class="cls-12" cx="2901.49" cy="2210.85" r="1.7"/><circle class="cls-12" cx="2775.15" cy="2239.21" r="1.7"/><circle class="cls-12" cx="2890.4" cy="2167.84" r="1.7"/><circle class="cls-12" cx="2880.59" cy="2201.88" r="1.7"/><circle class="cls-12" cx="2823.22" cy="2263.74" r="1.7"/><circle class="cls-12" cx="2787.62" cy="2263.89" r="1.7"/><circle class="cls-12" cx="2774.72" cy="2257.14" r="1.7"/></g><path class="cls-30" d="M2477.55,1895.78a5.31,5.31,0,1,1-5.31-5.31A5.31,5.31,0,0,1,2477.55,1895.78Z" transform="translate(357.5 226.56)"/><path class="cls-30" d="M2534.23,1895.78a5.31,5.31,0,1,1-5.3-5.31A5.3,5.3,0,0,1,2534.23,1895.78Z" transform="translate(357.5 226.56)"/><path class="cls-30" d="M2516,1893.15a1.68,1.68,0,0,0-1.19-1.19c-3.26-.55-5.68.33-8.54,1.72l-8.87,0c-5.07-1.78-10.86-1.79-10.9,4.88,0,5.93,4.11,11.41,9.37,13.83C2507.93,1917.93,2519.48,1904.94,2516,1893.15Z" transform="translate(357.5 226.56)"/><path class="cls-32" d="M2508.29,1893.27c-.67.27-1.35.58-2.06.92h-8.87a19.73,19.73,0,0,0-2.66-.71,5.72,5.72,0,0,0-.57,2.47c0,2.73,1.84,4.95,4.1,4.95a3.7,3.7,0,0,1,6.61,0c2.26,0,4.1-2.22,4.1-4.95A5.77,5.77,0,0,0,2508.29,1893.27Z" transform="translate(357.5 226.56)"/><path class="cls-30" d="M2462.22,1895.91a7,7,0,0,0,.27,7.08,6.73,6.73,0,0,0,2.62,2.26,5.31,5.31,0,0,0,3.2.7.08.08,0,0,0,0-.16,11.24,11.24,0,0,1-3-.88,6.94,6.94,0,0,1-2.34-2.2,6.72,6.72,0,0,1-.36-6.57c.12-.26-.25-.48-.39-.23Z" transform="translate(357.5 226.56)"/><path class="cls-30" d="M2459,1902.41c-1,1.85.21,4.79,2.45,4.92a.08.08,0,0,0,0-.16c-1.89-.52-3.23-2.79-2.24-4.62.08-.15-.15-.29-.23-.14Z" transform="translate(357.5 226.56)"/><path class="cls-30" d="M2525.67,1905.39a7.64,7.64,0,0,0,7.88-1.46,7.17,7.17,0,0,0,2-7.51,0,0,0,0,0-.09,0,7.8,7.8,0,0,1-2.22,7.18,7.23,7.23,0,0,1-7.42,1.17c-.37-.15-.53.44-.16.59Z" transform="translate(357.5 226.56)"/><path class="cls-30" d="M2527.93,1910.05a5.51,5.51,0,0,0,4.63,0,6,6,0,0,0,2-1.42,3.84,3.84,0,0,0,1.06-2c0-.12-.16-.15-.22-.06-.2.31-.32.66-.52,1a5.47,5.47,0,0,1-.71.88,5.71,5.71,0,0,1-1.78,1.26,5.6,5.6,0,0,1-4.36.21c-.12,0-.2.14-.09.2Z" transform="translate(357.5 226.56)"/><path class="cls-30" d="M2464.6,1884.75a10.88,10.88,0,0,1,2.06-8.72,10.47,10.47,0,0,1,7.59-3.65.61.61,0,0,0,0-1.22c-6.74-.09-12.49,7.25-10.26,13.76a.32.32,0,0,0,.61-.17Z" transform="translate(357.5 226.56)"/><path class="cls-30" d="M2524,1874.2a3.09,3.09,0,0,1,2.88-.41,4.8,4.8,0,0,1,2.5,2.28c.64,1.08,1.12,2.25,1.65,3.38.62,1.3,1.23,2.61,1.85,3.91.3.62,1.22.08.92-.53-.73-1.49-1.48-3-2.22-4.45a18.52,18.52,0,0,0-2-3.48,5,5,0,0,0-2.88-1.92,3,3,0,0,0-3,.84c-.15.19.05.55.29.38Z" transform="translate(357.5 226.56)"/></g></g></svg>