<svg id="Layer_1" data-name="Layer 1" xmlns="http://www.w3.org/2000/svg" viewBox="0 0 177.44 34.64"><defs><style>.cls-1{fill:#231f20;}</style></defs><path class="cls-1" d="M.56,42.3a16.73,16.73,0,0,1,1.35-6.71,17.41,17.41,0,0,1,9.21-9.2A16.82,16.82,0,0,1,17.82,25a16.58,16.58,0,0,1,6.66,1.34,17.28,17.28,0,0,1,5.45,3.67,18,18,0,0,1,3.71,5.45,16.91,16.91,0,0,1,1.41,6.66V55.44a3.62,3.62,0,0,1-.29,1.43A3.93,3.93,0,0,1,34,58a3.47,3.47,0,0,1-1.18.8,3.74,3.74,0,0,1-1.44.29,3.29,3.29,0,0,1-2.41-1,3.77,3.77,0,0,1-1.11-2.32,17.58,17.58,0,0,1-4.66,2.71,14.62,14.62,0,0,1-5.36,1,16.82,16.82,0,0,1-6.7-1.35A17.41,17.41,0,0,1,1.91,49,16.73,16.73,0,0,1,.56,42.3Zm7.2,0a9.52,9.52,0,0,0,.8,3.9,10.06,10.06,0,0,0,5.34,5.34,9.52,9.52,0,0,0,3.9.8,9.67,9.67,0,0,0,3.94-.8,10.36,10.36,0,0,0,3.19-2.15,10,10,0,0,0,2.13-3.19,10.19,10.19,0,0,0,0-7.82,10,10,0,0,0-9.26-6.09,9.84,9.84,0,0,0-3.9.78,10,10,0,0,0-3.19,2.14A10.39,10.39,0,0,0,8.56,38.4,9.51,9.51,0,0,0,7.76,42.32Z" transform="translate(-0.56 -24.93)"/><path class="cls-1" d="M69.93,41.76v13.9a3.4,3.4,0,0,1-1,2.53,3.55,3.55,0,0,1-2.57,1,3.49,3.49,0,0,1-2.56-1,3.39,3.39,0,0,1-1-2.53V41.78a14.37,14.37,0,0,0-.56-3.92,8.83,8.83,0,0,0-1.52-3,6.77,6.77,0,0,0-2.42-1.93A7.4,7.4,0,0,0,55,32.24a8.07,8.07,0,0,0-3.37.7,7.94,7.94,0,0,0-2.68,2,9.43,9.43,0,0,0-1.75,3,10.65,10.65,0,0,0-.64,3.7V55.55A3.52,3.52,0,0,1,43,59.13a3.66,3.66,0,0,1-1.39-.27,3.54,3.54,0,0,1-1.16-.76A3.73,3.73,0,0,1,39.64,57a3.52,3.52,0,0,1-.29-1.41V28.62a3.45,3.45,0,0,1,.29-1.41,3.41,3.41,0,0,1,.8-1.14,3.82,3.82,0,0,1,1.16-.78A3.45,3.45,0,0,1,43,25a3.52,3.52,0,0,1,1.41.29,3.52,3.52,0,0,1,1.86,1.93,3.7,3.7,0,0,1,.27,1.42v.51a16,16,0,0,1,4.32-3A11.37,11.37,0,0,1,55.8,25a13.07,13.07,0,0,1,5.76,1.26A13.25,13.25,0,0,1,66,29.8a16.37,16.37,0,0,1,2.88,5.28A20.75,20.75,0,0,1,69.93,41.76Z" transform="translate(-0.56 -24.93)"/><path class="cls-1" d="M79.69,43.48A18.36,18.36,0,0,1,76,41.41a9.47,9.47,0,0,1-2.57-2.76,7.19,7.19,0,0,1-1-3.77,8.46,8.46,0,0,1,1-4.12,9.62,9.62,0,0,1,2.64-3.13,12.3,12.3,0,0,1,3.8-2,14.31,14.31,0,0,1,4.47-.7,16,16,0,0,1,3.11.31,15.28,15.28,0,0,1,3,.91,10.8,10.8,0,0,1,2.61,1.51,6.26,6.26,0,0,1,1.77,2.15,3.29,3.29,0,0,1,.36,2,2.84,2.84,0,0,1-.76,1.57,3.33,3.33,0,0,1-1.62,1A2.72,2.72,0,0,1,91,34.19c-.51-.36-1-.71-1.45-1.06a13,13,0,0,0-1.39-.93,8.61,8.61,0,0,0-1.49-.65,5.6,5.6,0,0,0-1.75-.25,7.46,7.46,0,0,0-3.69.83,2.76,2.76,0,0,0-1.49,2.57,2.54,2.54,0,0,0,.47,1.52,4.58,4.58,0,0,0,1.29,1.16,10.86,10.86,0,0,0,1.93.92c.75.28,1.57.55,2.46.82,1.45.45,2.83,1,4.13,1.48a15,15,0,0,1,3.46,1.95,9,9,0,0,1,2.39,2.79,8.18,8.18,0,0,1,.88,3.95,9,9,0,0,1-.92,4,10.23,10.23,0,0,1-2.55,3.24,12.29,12.29,0,0,1-3.86,2.17,14.23,14.23,0,0,1-4.83.8,19.1,19.1,0,0,1-3.53-.35,15.71,15.71,0,0,1-3.51-1.09,12.75,12.75,0,0,1-3.07-1.91,9.36,9.36,0,0,1-2.27-2.8,4,4,0,0,1-.56-2,3.15,3.15,0,0,1,.44-1.61,3.11,3.11,0,0,1,1.12-1.1,3.35,3.35,0,0,1,1.57-.47,3.84,3.84,0,0,1,1.78.34,4.56,4.56,0,0,1,1.66,1.34,7.41,7.41,0,0,0,2.63,2.48,7.8,7.8,0,0,0,3.7.78,7.66,7.66,0,0,0,1.92-.25,6.61,6.61,0,0,0,1.69-.71,3.7,3.7,0,0,0,1.17-1.12,3,3,0,0,0-.14-3.31,4.94,4.94,0,0,0-1.45-1.22,10.54,10.54,0,0,0-1.9-.81l-1.94-.62C82.46,44.62,81.05,44.07,79.69,43.48Z" transform="translate(-0.56 -24.93)"/><path class="cls-1" d="M106.52,28.69a18.16,18.16,0,0,1,5-2.69,17.24,17.24,0,0,1,5.79-1h.14a3.66,3.66,0,0,1,2.75,1,3.56,3.56,0,0,1,1,2.57,3.35,3.35,0,0,1-1.09,2.57,3.69,3.69,0,0,1-2.64,1h-.14a10.55,10.55,0,0,0-4.18.85,10.81,10.81,0,0,0-3.44,2.34,11.18,11.18,0,0,0-2.32,3.47,10.88,10.88,0,0,0-.85,4.27V55.55a3.52,3.52,0,0,1-3.58,3.58,3.66,3.66,0,0,1-1.39-.27,3.44,3.44,0,0,1-1.16-.76A3.73,3.73,0,0,1,99.61,57a3.52,3.52,0,0,1-.29-1.41V28.62a3.45,3.45,0,0,1,.29-1.41,3.69,3.69,0,0,1,1.94-1.92A3.58,3.58,0,0,1,103,25a3.52,3.52,0,0,1,1.41.29,3.42,3.42,0,0,1,1.12.78,3.56,3.56,0,0,1,.74,1.14,3.62,3.62,0,0,1,.27,1.41Z" transform="translate(-0.56 -24.93)"/><path class="cls-1" d="M127.15,45.56a9.82,9.82,0,0,0,1.32,2.82,9.66,9.66,0,0,0,2.12,2.25,10,10,0,0,0,2.73,1.46,9.54,9.54,0,0,0,3.17.53,9.39,9.39,0,0,0,3.87-.71A7.83,7.83,0,0,0,143,50.05a3.81,3.81,0,0,1,1.84-.85,3.63,3.63,0,0,1,1.74.16,2.47,2.47,0,0,1,1,.6,4.05,4.05,0,0,1,.73.92,3.74,3.74,0,0,1,.6,2.37,3.38,3.38,0,0,1-1.36,2.37,14.38,14.38,0,0,1-1.88,1.5,13,13,0,0,1-2.41,1.25,15.78,15.78,0,0,1-3,.85,21.05,21.05,0,0,1-3.73.31,17.06,17.06,0,0,1-6.73-1.34A17.29,17.29,0,0,1,120.53,49a17.1,17.1,0,0,1,0-13.46,17.45,17.45,0,0,1,3.73-5.48,17.69,17.69,0,0,1,5.5-3.7A16.89,16.89,0,0,1,136.49,25a16.71,16.71,0,0,1,6.68,1.34,17.5,17.5,0,0,1,9.23,9.08,16.82,16.82,0,0,1,1.43,6.66,3.31,3.31,0,0,1-1,2.48,3.51,3.51,0,0,1-2.55,1Zm19.26-6a10.14,10.14,0,0,0-1.29-3.06,9.38,9.38,0,0,0-2.17-2.4,10.27,10.27,0,0,0-2.91-1.6,10.4,10.4,0,0,0-3.44-.58,10.15,10.15,0,0,0-3.42.58,9.61,9.61,0,0,0-5,4,9.52,9.52,0,0,0-1.23,3Z" transform="translate(-0.56 -24.93)"/><path class="cls-1" d="M163.34,28.69a18.16,18.16,0,0,1,5-2.69,17.24,17.24,0,0,1,5.79-1h.14a3.65,3.65,0,0,1,2.75,1,3.56,3.56,0,0,1,1,2.57,3.37,3.37,0,0,1-1.08,2.57,3.73,3.73,0,0,1-2.65,1h-.14a10.55,10.55,0,0,0-4.18.85,10.81,10.81,0,0,0-3.44,2.34,11.18,11.18,0,0,0-2.32,3.47,10.88,10.88,0,0,0-.85,4.27V55.55a3.52,3.52,0,0,1-3.58,3.58,3.66,3.66,0,0,1-1.39-.27,3.44,3.44,0,0,1-1.16-.76,3.73,3.73,0,0,1-.78-1.14,3.52,3.52,0,0,1-.29-1.41V28.62a3.45,3.45,0,0,1,.29-1.41,3.69,3.69,0,0,1,1.94-1.92A3.58,3.58,0,0,1,159.8,25a3.52,3.52,0,0,1,1.41.29,3.42,3.42,0,0,1,1.12.78,3.56,3.56,0,0,1,.74,1.14,3.62,3.62,0,0,1,.27,1.41Z" transform="translate(-0.56 -24.93)"/></svg>